<svg width="293" height="293" viewBox="0 0 293 293" fill="none" xmlns="http://www.w3.org/2000/svg">
<g filter="url(#filter0_i_2_810)">
<rect x="5" y="5" width="283" height="283" rx="141.5" stroke="#222222" stroke-width="10"/>
<circle cx="147" cy="147" r="140" fill="#444444"/>
<path d="M149.35 146.5C149.35 147.256 149.05 147.981 148.516 148.515C147.981 149.049 147.256 149.35 146.501 149.35C145.745 149.35 145.02 149.05 144.486 148.516C143.951 147.982 143.65 147.257 143.65 146.501C143.65 145.746 143.949 145.021 144.484 144.486C145.018 143.951 145.742 143.651 146.498 143.65C147.254 143.649 147.979 143.949 148.514 144.483C149.048 145.017 149.349 145.741 149.35 146.497" fill="white"/>
<path d="M123.971 11.872L126.051 24.2992" stroke="white" stroke-width="3.25" stroke-miterlimit="10"/>
<path d="M116.338 41.168C117.412 41.012 118.383 40.6913 119.25 40.206C120.134 39.7207 120.836 39.1487 121.356 38.49H125.334L121.798 55H116.182L118.756 42.91H115.948L116.338 41.168ZM135.304 38.23C136.656 38.23 137.765 38.4207 138.632 38.802C139.498 39.1833 140.183 39.7727 140.686 40.57C141.032 41.1073 141.301 41.7227 141.492 42.416C141.682 43.092 141.778 43.8633 141.778 44.73C141.778 45.458 141.708 46.2033 141.57 46.966C141.431 47.7287 141.232 48.4653 140.972 49.176C140.712 49.8867 140.4 50.5627 140.036 51.204C139.689 51.828 139.299 52.374 138.866 52.842C138.086 53.7087 137.193 54.324 136.188 54.688C135.182 55.0347 133.96 55.208 132.522 55.208C131.135 55.208 130.008 55.052 129.142 54.74C128.292 54.428 127.616 53.9253 127.114 53.232C126.698 52.7293 126.386 52.0967 126.178 51.334C125.987 50.554 125.892 49.6527 125.892 48.63C125.892 47.7113 125.978 46.8187 126.152 45.952C126.325 45.068 126.576 44.2447 126.906 43.482C127.252 42.7193 127.668 42.026 128.154 41.402C128.639 40.778 129.194 40.2493 129.818 39.816C130.546 39.296 131.352 38.906 132.236 38.646C133.137 38.3687 134.16 38.23 135.304 38.23ZM132.47 53.388C132.816 53.388 133.146 53.206 133.458 52.842C133.787 52.478 134.09 52.0013 134.368 51.412C134.645 50.8053 134.888 50.1207 135.096 49.358C135.321 48.578 135.512 47.7807 135.668 46.966C135.824 46.134 135.945 45.328 136.032 44.548C136.118 43.7507 136.162 43.0227 136.162 42.364C136.162 41.48 136.084 40.8733 135.928 40.544C135.772 40.1973 135.546 40.024 135.252 40.024C134.888 40.024 134.541 40.206 134.212 40.57C133.882 40.9167 133.579 41.3847 133.302 41.974C133.024 42.546 132.764 43.2133 132.522 43.976C132.296 44.7387 132.097 45.5187 131.924 46.316C131.768 47.1133 131.646 47.902 131.56 48.682C131.473 49.462 131.43 50.1727 131.43 50.814C131.43 51.7847 131.525 52.4607 131.716 52.842C131.906 53.206 132.158 53.388 132.47 53.388ZM152.671 38.23C154.023 38.23 155.132 38.4207 155.999 38.802C156.866 39.1833 157.55 39.7727 158.053 40.57C158.4 41.1073 158.668 41.7227 158.859 42.416C159.05 43.092 159.145 43.8633 159.145 44.73C159.145 45.458 159.076 46.2033 158.937 46.966C158.798 47.7287 158.599 48.4653 158.339 49.176C158.079 49.8867 157.767 50.5627 157.403 51.204C157.056 51.828 156.666 52.374 156.233 52.842C155.453 53.7087 154.56 54.324 153.555 54.688C152.55 55.0347 151.328 55.208 149.889 55.208C148.502 55.208 147.376 55.052 146.509 54.74C145.66 54.428 144.984 53.9253 144.481 53.232C144.065 52.7293 143.753 52.0967 143.545 51.334C143.354 50.554 143.259 49.6527 143.259 48.63C143.259 47.7113 143.346 46.8187 143.519 45.952C143.692 45.068 143.944 44.2447 144.273 43.482C144.62 42.7193 145.036 42.026 145.521 41.402C146.006 40.778 146.561 40.2493 147.185 39.816C147.913 39.296 148.719 38.906 149.603 38.646C150.504 38.3687 151.527 38.23 152.671 38.23ZM149.837 53.388C150.184 53.388 150.513 53.206 150.825 52.842C151.154 52.478 151.458 52.0013 151.735 51.412C152.012 50.8053 152.255 50.1207 152.463 49.358C152.688 48.578 152.879 47.7807 153.035 46.966C153.191 46.134 153.312 45.328 153.399 44.548C153.486 43.7507 153.529 43.0227 153.529 42.364C153.529 41.48 153.451 40.8733 153.295 40.544C153.139 40.1973 152.914 40.024 152.619 40.024C152.255 40.024 151.908 40.206 151.579 40.57C151.25 40.9167 150.946 41.3847 150.669 41.974C150.392 42.546 150.132 43.2133 149.889 43.976C149.664 44.7387 149.464 45.5187 149.291 46.316C149.135 47.1133 149.014 47.902 148.927 48.682C148.84 49.462 148.797 50.1727 148.797 50.814C148.797 51.7847 148.892 52.4607 149.083 52.842C149.274 53.206 149.525 53.388 149.837 53.388Z" fill="white"/>
<path d="M150.668 10.0637L150.38 19.5093" stroke="white" stroke-width="1.3" stroke-miterlimit="10"/>
<path d="M177.206 13.4985L174.371 25.7755" stroke="white" stroke-width="1.3" stroke-miterlimit="10"/>
<path d="M202.563 22.0445L198.682 30.6606" stroke="white" stroke-width="1.3" stroke-miterlimit="10"/>
<path d="M225.766 35.3732L218.449 45.6311" stroke="white" stroke-width="3.25" stroke-miterlimit="10"/>
<path d="M194.749 73.208C192.634 73.208 191.04 72.8007 189.965 71.986C188.908 71.1713 188.379 70.0273 188.379 68.554C188.379 67.5487 188.648 66.6647 189.185 65.902C189.74 65.122 190.693 64.5067 192.045 64.056C191.49 63.8653 191.005 63.5187 190.589 63.016C190.173 62.5133 189.965 61.846 189.965 61.014C189.965 60.2167 190.173 59.5233 190.589 58.934C191.005 58.3273 191.551 57.8247 192.227 57.426C192.903 57.0273 193.683 56.7327 194.567 56.542C195.451 56.3513 196.361 56.256 197.297 56.256C198.458 56.256 199.412 56.386 200.157 56.646C200.902 56.906 201.492 57.244 201.925 57.66C202.358 58.0587 202.653 58.5093 202.809 59.012C202.965 59.4973 203.043 59.9653 203.043 60.416C203.043 61.0747 202.922 61.638 202.679 62.106C202.454 62.5567 202.176 62.9293 201.847 63.224C201.518 63.5187 201.171 63.7527 200.807 63.926C200.46 64.082 200.174 64.186 199.949 64.238C200.746 64.4287 201.396 64.8447 201.899 65.486C202.419 66.11 202.679 66.8987 202.679 67.852C202.679 68.5973 202.497 69.2993 202.133 69.958C201.769 70.5993 201.249 71.1627 200.573 71.648C199.897 72.1333 199.065 72.5147 198.077 72.792C197.106 73.0693 195.997 73.208 194.749 73.208ZM196.075 63.38C196.439 63.38 196.742 63.2587 196.985 63.016C197.245 62.7733 197.453 62.47 197.609 62.106C197.765 61.742 197.878 61.352 197.947 60.936C198.016 60.5027 198.051 60.0953 198.051 59.714C198.051 59.5233 198.042 59.3327 198.025 59.142C198.008 58.934 197.964 58.752 197.895 58.596C197.826 58.4227 197.722 58.284 197.583 58.18C197.444 58.076 197.254 58.024 197.011 58.024C196.647 58.024 196.335 58.1453 196.075 58.388C195.832 58.6133 195.633 58.8993 195.477 59.246C195.321 59.5927 195.2 59.9827 195.113 60.416C195.044 60.8493 195.009 61.2567 195.009 61.638C195.009 61.846 195.018 62.054 195.035 62.262C195.052 62.4527 195.096 62.6347 195.165 62.808C195.252 62.9813 195.364 63.12 195.503 63.224C195.642 63.328 195.832 63.38 196.075 63.38ZM195.087 71.414C195.451 71.414 195.754 71.2753 195.997 70.998C196.257 70.7207 196.456 70.3653 196.595 69.932C196.751 69.4987 196.855 69.0307 196.907 68.528C196.976 68.0253 197.011 67.54 197.011 67.072C197.011 66.552 196.95 66.11 196.829 65.746C196.725 65.3647 196.448 65.174 195.997 65.174C195.633 65.174 195.321 65.3127 195.061 65.59C194.801 65.85 194.584 66.188 194.411 66.604C194.255 67.0027 194.134 67.4533 194.047 67.956C193.978 68.4413 193.943 68.9007 193.943 69.334C193.943 69.8713 194.021 70.3567 194.177 70.79C194.333 71.206 194.636 71.414 195.087 71.414ZM214.382 56.23C215.734 56.23 216.843 56.4207 217.71 56.802C218.577 57.1833 219.261 57.7727 219.764 58.57C220.111 59.1073 220.379 59.7227 220.57 60.416C220.761 61.092 220.856 61.8633 220.856 62.73C220.856 63.458 220.787 64.2033 220.648 64.966C220.509 65.7287 220.31 66.4653 220.05 67.176C219.79 67.8867 219.478 68.5627 219.114 69.204C218.767 69.828 218.377 70.374 217.944 70.842C217.164 71.7087 216.271 72.324 215.266 72.688C214.261 73.0347 213.039 73.208 211.6 73.208C210.213 73.208 209.087 73.052 208.22 72.74C207.371 72.428 206.695 71.9253 206.192 71.232C205.776 70.7293 205.464 70.0967 205.256 69.334C205.065 68.554 204.97 67.6527 204.97 66.63C204.97 65.7113 205.057 64.8187 205.23 63.952C205.403 63.068 205.655 62.2447 205.984 61.482C206.331 60.7193 206.747 60.026 207.232 59.402C207.717 58.778 208.272 58.2493 208.896 57.816C209.624 57.296 210.43 56.906 211.314 56.646C212.215 56.3687 213.238 56.23 214.382 56.23ZM211.548 71.388C211.895 71.388 212.224 71.206 212.536 70.842C212.865 70.478 213.169 70.0013 213.446 69.412C213.723 68.8053 213.966 68.1207 214.174 67.358C214.399 66.578 214.59 65.7807 214.746 64.966C214.902 64.134 215.023 63.328 215.11 62.548C215.197 61.7507 215.24 61.0227 215.24 60.364C215.24 59.48 215.162 58.8733 215.006 58.544C214.85 58.1973 214.625 58.024 214.33 58.024C213.966 58.024 213.619 58.206 213.29 58.57C212.961 58.9167 212.657 59.3847 212.38 59.974C212.103 60.546 211.843 61.2133 211.6 61.976C211.375 62.7387 211.175 63.5187 211.002 64.316C210.846 65.1133 210.725 65.902 210.638 66.682C210.551 67.462 210.508 68.1727 210.508 68.814C210.508 69.7847 210.603 70.4607 210.794 70.842C210.985 71.206 211.236 71.388 211.548 71.388Z" fill="white"/>
<path d="M245.923 52.9725L239.04 59.4475" stroke="white" stroke-width="1.3" stroke-miterlimit="10"/>
<path d="M262.259 74.166L251.573 80.843" stroke="white" stroke-width="1.3" stroke-miterlimit="10"/>
<path d="M274.146 98.1393L265.309 101.487" stroke="white" stroke-width="1.3" stroke-miterlimit="10"/>
<path d="M281.128 123.971L268.701 126.051" stroke="white" stroke-width="3.25" stroke-miterlimit="10"/>
<path d="M238.596 121.23C238.925 121.23 239.298 121.247 239.714 121.282C240.147 121.317 240.58 121.377 241.014 121.464C241.464 121.533 241.898 121.637 242.314 121.776C242.747 121.897 243.128 122.062 243.458 122.27L242.626 125.91H238.596C238.613 125.719 238.63 125.537 238.648 125.364C238.665 125.191 238.674 125.009 238.674 124.818C238.674 124.367 238.622 123.96 238.518 123.596C238.414 123.215 238.214 123.024 237.92 123.024C237.712 123.024 237.469 123.137 237.192 123.362C236.914 123.587 236.628 123.943 236.334 124.428C236.039 124.913 235.762 125.537 235.502 126.3C235.242 127.063 235.025 127.973 234.852 129.03H235.112C235.614 128.475 236.23 128.051 236.958 127.756C237.703 127.461 238.466 127.314 239.246 127.314C240.58 127.314 241.534 127.721 242.106 128.536C242.678 129.333 242.964 130.425 242.964 131.812C242.964 132.869 242.799 133.788 242.47 134.568C242.14 135.331 241.612 135.998 240.884 136.57C240.26 137.055 239.471 137.454 238.518 137.766C237.582 138.061 236.472 138.208 235.19 138.208C234.271 138.208 233.422 138.113 232.642 137.922C231.879 137.714 231.212 137.367 230.64 136.882C230.085 136.379 229.652 135.712 229.34 134.88C229.028 134.031 228.872 132.965 228.872 131.682C228.872 130.313 229.062 128.995 229.444 127.73C229.842 126.465 230.44 125.355 231.238 124.402C232.035 123.431 233.04 122.66 234.254 122.088C235.484 121.516 236.932 121.23 238.596 121.23ZM235.06 136.44C235.476 136.44 235.84 136.249 236.152 135.868C236.464 135.487 236.715 135.019 236.906 134.464C237.096 133.909 237.235 133.32 237.322 132.696C237.426 132.055 237.478 131.483 237.478 130.98C237.478 130.564 237.426 130.243 237.322 130.018C237.235 129.793 237.018 129.68 236.672 129.68C236.204 129.68 235.805 129.879 235.476 130.278C235.146 130.659 234.869 131.127 234.644 131.682C234.436 132.219 234.28 132.783 234.176 133.372C234.089 133.961 234.046 134.455 234.046 134.854C234.046 135.339 234.124 135.729 234.28 136.024C234.436 136.301 234.696 136.44 235.06 136.44ZM254.331 121.23C255.683 121.23 256.792 121.421 257.659 121.802C258.526 122.183 259.21 122.773 259.713 123.57C260.06 124.107 260.328 124.723 260.519 125.416C260.71 126.092 260.805 126.863 260.805 127.73C260.805 128.458 260.736 129.203 260.597 129.966C260.458 130.729 260.259 131.465 259.999 132.176C259.739 132.887 259.427 133.563 259.063 134.204C258.716 134.828 258.326 135.374 257.893 135.842C257.113 136.709 256.22 137.324 255.215 137.688C254.21 138.035 252.988 138.208 251.549 138.208C250.162 138.208 249.036 138.052 248.169 137.74C247.32 137.428 246.644 136.925 246.141 136.232C245.725 135.729 245.413 135.097 245.205 134.334C245.014 133.554 244.919 132.653 244.919 131.63C244.919 130.711 245.006 129.819 245.179 128.952C245.352 128.068 245.604 127.245 245.933 126.482C246.28 125.719 246.696 125.026 247.181 124.402C247.666 123.778 248.221 123.249 248.845 122.816C249.573 122.296 250.379 121.906 251.263 121.646C252.164 121.369 253.187 121.23 254.331 121.23ZM251.497 136.388C251.844 136.388 252.173 136.206 252.485 135.842C252.814 135.478 253.118 135.001 253.395 134.412C253.672 133.805 253.915 133.121 254.123 132.358C254.348 131.578 254.539 130.781 254.695 129.966C254.851 129.134 254.972 128.328 255.059 127.548C255.146 126.751 255.189 126.023 255.189 125.364C255.189 124.48 255.111 123.873 254.955 123.544C254.799 123.197 254.574 123.024 254.279 123.024C253.915 123.024 253.568 123.206 253.239 123.57C252.91 123.917 252.606 124.385 252.329 124.974C252.052 125.546 251.792 126.213 251.549 126.976C251.324 127.739 251.124 128.519 250.951 129.316C250.795 130.113 250.674 130.902 250.587 131.682C250.5 132.462 250.457 133.173 250.457 133.814C250.457 134.785 250.552 135.461 250.743 135.842C250.934 136.206 251.185 136.388 251.497 136.388Z" fill="white"/>
<path d="M282.936 150.669L273.491 150.38" stroke="white" stroke-width="1.3" stroke-miterlimit="10"/>
<path d="M279.502 177.206L267.224 174.371" stroke="white" stroke-width="1.3" stroke-miterlimit="10"/>
<path d="M270.956 202.563L262.339 198.682" stroke="white" stroke-width="1.3" stroke-miterlimit="10"/>
<path d="M257.627 225.766L247.369 218.449" stroke="white" stroke-width="3.25" stroke-miterlimit="10"/>
<path d="M222.938 212H217.322L218.18 207.84H211.394L212.044 204.798L219.792 195.49H226.5L224.29 205.656H226.656L226.188 207.84H223.822L222.938 212ZM218.648 205.656L220.208 198.428L214.436 205.656H218.648ZM237.717 195.23C239.069 195.23 240.178 195.421 241.045 195.802C241.912 196.183 242.596 196.773 243.099 197.57C243.446 198.107 243.714 198.723 243.905 199.416C244.096 200.092 244.191 200.863 244.191 201.73C244.191 202.458 244.122 203.203 243.983 203.966C243.844 204.729 243.645 205.465 243.385 206.176C243.125 206.887 242.813 207.563 242.449 208.204C242.102 208.828 241.712 209.374 241.279 209.842C240.499 210.709 239.606 211.324 238.601 211.688C237.596 212.035 236.374 212.208 234.935 212.208C233.548 212.208 232.422 212.052 231.555 211.74C230.706 211.428 230.03 210.925 229.527 210.232C229.111 209.729 228.799 209.097 228.591 208.334C228.4 207.554 228.305 206.653 228.305 205.63C228.305 204.711 228.392 203.819 228.565 202.952C228.738 202.068 228.99 201.245 229.319 200.482C229.666 199.719 230.082 199.026 230.567 198.402C231.052 197.778 231.607 197.249 232.231 196.816C232.959 196.296 233.765 195.906 234.649 195.646C235.55 195.369 236.573 195.23 237.717 195.23ZM234.883 210.388C235.23 210.388 235.559 210.206 235.871 209.842C236.2 209.478 236.504 209.001 236.781 208.412C237.058 207.805 237.301 207.121 237.509 206.358C237.734 205.578 237.925 204.781 238.081 203.966C238.237 203.134 238.358 202.328 238.445 201.548C238.532 200.751 238.575 200.023 238.575 199.364C238.575 198.48 238.497 197.873 238.341 197.544C238.185 197.197 237.96 197.024 237.665 197.024C237.301 197.024 236.954 197.206 236.625 197.57C236.296 197.917 235.992 198.385 235.715 198.974C235.438 199.546 235.178 200.213 234.935 200.976C234.71 201.739 234.51 202.519 234.337 203.316C234.181 204.113 234.06 204.902 233.973 205.682C233.886 206.462 233.843 207.173 233.843 207.814C233.843 208.785 233.938 209.461 234.129 209.842C234.32 210.206 234.571 210.388 234.883 210.388Z" fill="white"/>
<path d="M240.027 245.923L233.552 239.04" stroke="white" stroke-width="1.3" stroke-miterlimit="10"/>
<path d="M218.834 262.259L212.157 251.573" stroke="white" stroke-width="1.3" stroke-miterlimit="10"/>
<path d="M194.861 274.146L191.513 265.309" stroke="white" stroke-width="1.3" stroke-miterlimit="10"/>
<path d="M169.029 281.128L166.949 268.701" stroke="white" stroke-width="3.25" stroke-miterlimit="10"/>
<path d="M148.104 250.452C149.3 250.071 150.462 249.594 151.588 249.022C152.715 248.433 153.72 247.731 154.604 246.916C155.488 246.084 156.19 245.122 156.71 244.03C157.248 242.938 157.516 241.681 157.516 240.26C157.516 239.567 157.447 239.029 157.308 238.648C157.17 238.267 156.927 238.076 156.58 238.076C156.268 238.076 155.974 238.223 155.696 238.518C155.436 238.813 155.194 239.185 154.968 239.636C154.76 240.087 154.561 240.589 154.37 241.144C154.197 241.699 154.05 242.236 153.928 242.756H149.222L150.08 238.856C151.051 238.024 152.074 237.383 153.148 236.932C154.223 236.464 155.436 236.23 156.788 236.23C157.62 236.23 158.4 236.325 159.128 236.516C159.874 236.707 160.515 237.01 161.052 237.426C161.607 237.825 162.04 238.336 162.352 238.96C162.682 239.567 162.846 240.295 162.846 241.144C162.846 241.785 162.734 242.418 162.508 243.042C162.3 243.666 161.919 244.316 161.364 244.992C160.827 245.651 160.09 246.344 159.154 247.072C158.236 247.783 157.066 248.554 155.644 249.386H161.442L160.922 253H147.532L148.104 250.452ZM173.526 236.23C174.878 236.23 175.988 236.421 176.854 236.802C177.721 237.183 178.406 237.773 178.908 238.57C179.255 239.107 179.524 239.723 179.714 240.416C179.905 241.092 180 241.863 180 242.73C180 243.458 179.931 244.203 179.792 244.966C179.654 245.729 179.454 246.465 179.194 247.176C178.934 247.887 178.622 248.563 178.258 249.204C177.912 249.828 177.522 250.374 177.088 250.842C176.308 251.709 175.416 252.324 174.41 252.688C173.405 253.035 172.183 253.208 170.744 253.208C169.358 253.208 168.231 253.052 167.364 252.74C166.515 252.428 165.839 251.925 165.336 251.232C164.92 250.729 164.608 250.097 164.4 249.334C164.21 248.554 164.114 247.653 164.114 246.63C164.114 245.711 164.201 244.819 164.374 243.952C164.548 243.068 164.799 242.245 165.128 241.482C165.475 240.719 165.891 240.026 166.376 239.402C166.862 238.778 167.416 238.249 168.04 237.816C168.768 237.296 169.574 236.906 170.458 236.646C171.36 236.369 172.382 236.23 173.526 236.23ZM170.692 251.388C171.039 251.388 171.368 251.206 171.68 250.842C172.01 250.478 172.313 250.001 172.59 249.412C172.868 248.805 173.11 248.121 173.318 247.358C173.544 246.578 173.734 245.781 173.89 244.966C174.046 244.134 174.168 243.328 174.254 242.548C174.341 241.751 174.384 241.023 174.384 240.364C174.384 239.48 174.306 238.873 174.15 238.544C173.994 238.197 173.769 238.024 173.474 238.024C173.11 238.024 172.764 238.206 172.434 238.57C172.105 238.917 171.802 239.385 171.524 239.974C171.247 240.546 170.987 241.213 170.744 241.976C170.519 242.739 170.32 243.519 170.146 244.316C169.99 245.113 169.869 245.902 169.782 246.682C169.696 247.462 169.652 248.173 169.652 248.814C169.652 249.785 169.748 250.461 169.938 250.842C170.129 251.206 170.38 251.388 170.692 251.388Z" fill="white"/>
<path d="M142.332 282.936L142.62 273.491" stroke="white" stroke-width="1.3" stroke-miterlimit="10"/>
<path d="M115.794 279.502L118.629 267.224" stroke="white" stroke-width="1.3" stroke-miterlimit="10"/>
<path d="M90.4369 270.956L94.3182 262.339" stroke="white" stroke-width="1.3" stroke-miterlimit="10"/>
<path d="M67.234 257.627L74.5509 247.369" stroke="white" stroke-width="3.25" stroke-miterlimit="10"/>
<path d="M90.8204 219.23C92.1724 219.23 93.2817 219.421 94.1484 219.802C95.0151 220.183 95.6997 220.773 96.2024 221.57C96.5491 222.107 96.8177 222.723 97.0084 223.416C97.1991 224.092 97.2944 224.863 97.2944 225.73C97.2944 226.458 97.2251 227.203 97.0864 227.966C96.9477 228.729 96.7484 229.465 96.4884 230.176C96.2284 230.887 95.9164 231.563 95.5524 232.204C95.2057 232.828 94.8157 233.374 94.3824 233.842C93.6024 234.709 92.7097 235.324 91.7044 235.688C90.6991 236.035 89.4771 236.208 88.0384 236.208C86.6517 236.208 85.5251 236.052 84.6584 235.74C83.8091 235.428 83.1331 234.925 82.6304 234.232C82.2144 233.729 81.9024 233.097 81.6944 232.334C81.5037 231.554 81.4084 230.653 81.4084 229.63C81.4084 228.711 81.4951 227.819 81.6684 226.952C81.8417 226.068 82.0931 225.245 82.4224 224.482C82.7691 223.719 83.1851 223.026 83.6704 222.402C84.1557 221.778 84.7104 221.249 85.3344 220.816C86.0624 220.296 86.8684 219.906 87.7524 219.646C88.6537 219.369 89.6764 219.23 90.8204 219.23ZM87.9864 234.388C88.3331 234.388 88.6624 234.206 88.9744 233.842C89.3037 233.478 89.6071 233.001 89.8844 232.412C90.1617 231.805 90.4044 231.121 90.6124 230.358C90.8377 229.578 91.0284 228.781 91.1844 227.966C91.3404 227.134 91.4617 226.328 91.5484 225.548C91.6351 224.751 91.6784 224.023 91.6784 223.364C91.6784 222.48 91.6004 221.873 91.4444 221.544C91.2884 221.197 91.0631 221.024 90.7684 221.024C90.4044 221.024 90.0577 221.206 89.7284 221.57C89.3991 221.917 89.0957 222.385 88.8184 222.974C88.5411 223.546 88.2811 224.213 88.0384 224.976C87.8131 225.739 87.6137 226.519 87.4404 227.316C87.2844 228.113 87.1631 228.902 87.0764 229.682C86.9897 230.462 86.9464 231.173 86.9464 231.814C86.9464 232.785 87.0417 233.461 87.2324 233.842C87.4231 234.206 87.6744 234.388 87.9864 234.388Z" fill="white"/>
<path d="M118.528 87.04L120.016 86.72V77.76L118.528 77.44V76.48H126.208V80H124.944L124.736 77.68H121.6V81.504H124.608V82.832H121.6V86.8H124.72L124.944 84.24H126.208V88H118.528V87.04ZM133.527 83.088C133.527 82.8 133.511 82.528 133.479 82.272C133.447 82.016 133.378 81.792 133.271 81.6C133.175 81.408 133.031 81.2533 132.839 81.136C132.647 81.0187 132.391 80.96 132.071 80.96C131.762 80.96 131.49 81.0293 131.255 81.168C131.031 81.3067 130.844 81.488 130.695 81.712C130.546 81.936 130.434 82.1813 130.359 82.448C130.295 82.7147 130.263 82.976 130.263 83.232V86.72L131.463 87.04V88H127.543V87.04L128.743 86.72V81.28L127.527 80.96V80H129.943L130.263 81.28C130.37 80.8 130.631 80.4427 131.047 80.208C131.474 79.9627 131.98 79.84 132.567 79.84C133.111 79.84 133.543 79.936 133.863 80.128C134.194 80.32 134.444 80.5707 134.615 80.88C134.796 81.1893 134.914 81.5413 134.967 81.936C135.031 82.32 135.063 82.7093 135.063 83.104V86.72L136.263 87.04V88H133.527V83.088ZM139.926 79.84C140.129 79.84 140.331 79.856 140.534 79.888C140.737 79.92 140.923 79.9787 141.094 80.064C141.275 80.1493 141.43 80.2667 141.558 80.416C141.697 80.5653 141.798 80.7627 141.862 81.008H141.942L142.262 80H143.142V82.736C143.142 83.152 143.099 83.5467 143.014 83.92C142.929 84.2827 142.774 84.6027 142.55 84.88C142.326 85.1573 142.022 85.376 141.638 85.536C141.254 85.696 140.763 85.776 140.166 85.776C139.494 85.776 139.003 85.8133 138.694 85.888C138.395 85.952 138.246 86.08 138.246 86.272C138.246 86.3893 138.273 86.48 138.326 86.544C138.39 86.608 138.497 86.6613 138.646 86.704C138.795 86.736 138.998 86.7573 139.254 86.768C139.51 86.7787 139.841 86.784 140.246 86.784C140.705 86.784 141.137 86.8053 141.542 86.848C141.947 86.8907 142.299 86.992 142.598 87.152C142.907 87.312 143.153 87.5467 143.334 87.856C143.515 88.1653 143.606 88.592 143.606 89.136C143.606 89.6587 143.51 90.08 143.318 90.4C143.137 90.72 142.891 90.9653 142.582 91.136C142.273 91.3173 141.915 91.44 141.51 91.504C141.105 91.568 140.683 91.6 140.246 91.6C139.713 91.6 139.238 91.568 138.822 91.504C138.417 91.4507 138.07 91.344 137.782 91.184C137.494 91.0347 137.275 90.8213 137.126 90.544C136.977 90.2773 136.902 89.9307 136.902 89.504C136.902 89.216 136.945 88.9707 137.03 88.768C137.115 88.576 137.222 88.416 137.35 88.288C137.489 88.16 137.638 88.0587 137.798 87.984C137.969 87.9093 138.134 87.856 138.294 87.824V87.76C137.942 87.696 137.659 87.5787 137.446 87.408C137.233 87.2267 137.126 86.9653 137.126 86.624C137.126 86.3253 137.201 86.064 137.35 85.84C137.499 85.616 137.798 85.4773 138.246 85.424V85.328C137.819 85.0613 137.526 84.7093 137.366 84.272C137.217 83.8347 137.142 83.36 137.142 82.848C137.142 82.4107 137.19 82.0107 137.286 81.648C137.393 81.2747 137.558 80.9547 137.782 80.688C138.006 80.4213 138.294 80.2133 138.646 80.064C138.998 79.9147 139.425 79.84 139.926 79.84ZM140.23 84.688C140.529 84.688 140.769 84.64 140.95 84.544C141.142 84.448 141.291 84.32 141.398 84.16C141.505 83.9893 141.579 83.792 141.622 83.568C141.665 83.3333 141.686 83.0773 141.686 82.8C141.686 82.5333 141.665 82.288 141.622 82.064C141.579 81.84 141.505 81.648 141.398 81.488C141.291 81.3173 141.142 81.1893 140.95 81.104C140.769 81.008 140.529 80.96 140.23 80.96C139.931 80.96 139.686 81.008 139.494 81.104C139.302 81.1893 139.147 81.3173 139.03 81.488C138.923 81.648 138.849 81.84 138.806 82.064C138.763 82.288 138.742 82.5333 138.742 82.8C138.742 83.0667 138.763 83.3173 138.806 83.552C138.849 83.776 138.923 83.9733 139.03 84.144C139.147 84.3147 139.302 84.448 139.494 84.544C139.686 84.64 139.931 84.688 140.23 84.688ZM140.182 87.872C139.617 87.872 139.185 87.9627 138.886 88.144C138.587 88.3253 138.438 88.6667 138.438 89.168C138.438 89.4347 138.481 89.648 138.566 89.808C138.651 89.9787 138.774 90.112 138.934 90.208C139.094 90.304 139.286 90.368 139.51 90.4C139.734 90.432 139.985 90.448 140.262 90.448C140.529 90.448 140.774 90.432 140.998 90.4C141.222 90.368 141.414 90.304 141.574 90.208C141.734 90.112 141.857 89.9787 141.942 89.808C142.027 89.648 142.07 89.4293 142.07 89.152C142.07 88.8533 142.027 88.6133 141.942 88.432C141.857 88.2613 141.729 88.1333 141.558 88.048C141.398 87.9733 141.201 87.9253 140.966 87.904C140.731 87.8827 140.47 87.872 140.182 87.872ZM144.371 87.04L145.539 86.72V81.184L144.339 80.864V80H147.059V86.72L148.259 87.04V88H144.371V87.04ZM146.243 78.416C145.944 78.416 145.699 78.32 145.507 78.128C145.315 77.936 145.219 77.6907 145.219 77.392C145.219 77.0933 145.315 76.8533 145.507 76.672C145.699 76.48 145.944 76.384 146.243 76.384C146.541 76.384 146.787 76.48 146.979 76.672C147.171 76.8533 147.267 77.0933 147.267 77.392C147.267 77.6907 147.171 77.936 146.979 78.128C146.787 78.32 146.541 78.416 146.243 78.416ZM154.949 83.088C154.949 82.8 154.933 82.528 154.901 82.272C154.869 82.016 154.799 81.792 154.693 81.6C154.597 81.408 154.453 81.2533 154.261 81.136C154.069 81.0187 153.813 80.96 153.493 80.96C153.183 80.96 152.911 81.0293 152.677 81.168C152.453 81.3067 152.266 81.488 152.117 81.712C151.967 81.936 151.855 82.1813 151.781 82.448C151.717 82.7147 151.685 82.976 151.685 83.232V86.72L152.885 87.04V88H148.965V87.04L150.165 86.72V81.28L148.949 80.96V80H151.365L151.685 81.28C151.791 80.8 152.053 80.4427 152.469 80.208C152.895 79.9627 153.402 79.84 153.989 79.84C154.533 79.84 154.965 79.936 155.285 80.128C155.615 80.32 155.866 80.5707 156.037 80.88C156.218 81.1893 156.335 81.5413 156.389 81.936C156.453 82.32 156.485 82.7093 156.485 83.104V86.72L157.685 87.04V88H154.949V83.088ZM161.828 88.16C161.188 88.16 160.654 88.064 160.228 87.872C159.801 87.68 159.46 87.4027 159.204 87.04C158.948 86.6773 158.766 86.24 158.66 85.728C158.553 85.216 158.5 84.64 158.5 84C158.5 83.36 158.553 82.784 158.66 82.272C158.766 81.7493 158.948 81.312 159.204 80.96C159.47 80.5973 159.817 80.32 160.244 80.128C160.681 79.936 161.22 79.84 161.86 79.84C162.404 79.84 162.857 79.9147 163.22 80.064C163.582 80.2133 163.876 80.4427 164.1 80.752C164.324 81.0507 164.484 81.4347 164.58 81.904C164.676 82.3627 164.724 82.9067 164.724 83.536C164.724 83.664 164.724 83.7973 164.724 83.936C164.724 84.064 164.718 84.2027 164.708 84.352H160.196C160.196 84.7467 160.212 85.12 160.244 85.472C160.276 85.8133 160.345 86.112 160.452 86.368C160.569 86.624 160.734 86.8267 160.948 86.976C161.161 87.1253 161.454 87.2 161.828 87.2C162.137 87.2 162.382 87.152 162.564 87.056C162.756 86.9493 162.9 86.8213 162.996 86.672C163.092 86.512 163.156 86.3413 163.188 86.16C163.22 85.9787 163.241 85.8027 163.252 85.632H164.708C164.676 85.9413 164.606 86.2507 164.5 86.56C164.404 86.8587 164.244 87.1307 164.02 87.376C163.806 87.6107 163.524 87.8027 163.172 87.952C162.82 88.0907 162.372 88.16 161.828 88.16ZM161.764 80.8C161.433 80.8 161.166 80.8693 160.964 81.008C160.761 81.1467 160.601 81.3333 160.484 81.568C160.377 81.8027 160.302 82.08 160.26 82.4C160.228 82.7093 160.206 83.04 160.196 83.392H163.236C163.236 82.432 163.118 81.76 162.884 81.376C162.66 80.992 162.286 80.8 161.764 80.8ZM124.624 103.24H125.888V107H118.528V106.04L120.016 105.72V96.76L118.528 96.44V95.48H123.088V96.44L121.6 96.76V105.8H124.4L124.624 103.24ZM130.312 107.16C129.683 107.16 129.155 107.059 128.729 106.856C128.302 106.653 127.961 106.371 127.705 106.008C127.449 105.635 127.262 105.197 127.145 104.696C127.038 104.184 126.985 103.619 126.985 103C126.985 102.381 127.038 101.821 127.145 101.32C127.262 100.808 127.449 100.371 127.705 100.008C127.961 99.6347 128.302 99.3467 128.729 99.144C129.155 98.9413 129.683 98.84 130.312 98.84C130.942 98.84 131.47 98.9413 131.897 99.144C132.323 99.3467 132.665 99.6347 132.921 100.008C133.177 100.371 133.358 100.808 133.465 101.32C133.582 101.821 133.641 102.381 133.641 103C133.641 103.619 133.582 104.184 133.465 104.696C133.358 105.197 133.177 105.635 132.921 106.008C132.665 106.371 132.323 106.653 131.897 106.856C131.47 107.059 130.942 107.16 130.312 107.16ZM130.312 106.2C130.675 106.2 130.963 106.109 131.177 105.928C131.401 105.747 131.566 105.507 131.673 105.208C131.79 104.899 131.865 104.557 131.897 104.184C131.929 103.8 131.945 103.405 131.945 103C131.945 102.605 131.929 102.216 131.897 101.832C131.865 101.448 131.79 101.107 131.673 100.808C131.566 100.499 131.401 100.253 131.177 100.072C130.963 99.8907 130.675 99.8 130.312 99.8C129.939 99.8 129.646 99.8907 129.433 100.072C129.219 100.253 129.054 100.499 128.937 100.808C128.83 101.107 128.761 101.448 128.729 101.832C128.697 102.216 128.681 102.605 128.681 103C128.681 103.405 128.697 103.8 128.729 104.184C128.761 104.557 128.83 104.899 128.937 105.208C129.054 105.507 129.219 105.747 129.433 105.928C129.646 106.109 129.939 106.2 130.312 106.2ZM137.305 107.16C137.039 107.16 136.756 107.123 136.457 107.048C136.169 106.984 135.903 106.867 135.657 106.696C135.412 106.515 135.209 106.275 135.049 105.976C134.889 105.667 134.809 105.277 134.809 104.808C134.809 104.467 134.863 104.157 134.969 103.88C135.076 103.592 135.247 103.347 135.481 103.144C135.716 102.941 136.02 102.781 136.393 102.664C136.777 102.536 137.247 102.456 137.801 102.424L139.465 102.344V101.624C139.465 101.165 139.375 100.776 139.193 100.456C139.012 100.125 138.671 99.96 138.169 99.96C137.892 99.96 137.657 100.008 137.465 100.104C137.273 100.2 137.113 100.328 136.985 100.488C136.868 100.648 136.777 100.829 136.713 101.032C136.66 101.224 136.633 101.416 136.633 101.608H135.273V99H136.313L136.633 100.008H136.697C136.911 99.592 137.199 99.2933 137.561 99.112C137.924 98.9307 138.345 98.84 138.825 98.84C139.508 98.84 140.036 99.0107 140.409 99.352C140.793 99.6933 140.985 100.243 140.985 101V105.72L142.185 106.04V107H139.785L139.465 105.848C139.38 106.125 139.252 106.349 139.081 106.52C138.911 106.691 138.724 106.824 138.521 106.92C138.319 107.016 138.105 107.08 137.881 107.112C137.668 107.144 137.476 107.16 137.305 107.16ZM137.737 106.04C138.057 106.04 138.329 105.976 138.553 105.848C138.777 105.709 138.953 105.539 139.081 105.336C139.22 105.123 139.316 104.888 139.369 104.632C139.433 104.365 139.465 104.104 139.465 103.848V103.176L138.041 103.256C137.7 103.277 137.423 103.331 137.209 103.416C136.996 103.501 136.825 103.613 136.697 103.752C136.569 103.88 136.479 104.029 136.425 104.2C136.383 104.36 136.361 104.531 136.361 104.712C136.361 104.979 136.404 105.197 136.489 105.368C136.575 105.539 136.681 105.677 136.809 105.784C136.937 105.88 137.081 105.949 137.241 105.992C137.412 106.024 137.577 106.04 137.737 106.04ZM147.865 96.2L146.489 95.88V94.92H149.385V105.72L150.585 106.04V107H148.185L147.865 105.848C147.716 106.253 147.465 106.573 147.113 106.808C146.761 107.043 146.287 107.16 145.689 107.16C145.156 107.16 144.713 107.053 144.361 106.84C144.009 106.616 143.727 106.317 143.513 105.944C143.311 105.571 143.161 105.133 143.065 104.632C142.98 104.12 142.937 103.576 142.937 103C142.937 102.424 142.98 101.885 143.065 101.384C143.151 100.872 143.3 100.429 143.513 100.056C143.727 99.6827 144.004 99.3893 144.345 99.176C144.697 98.952 145.14 98.84 145.673 98.84C146.26 98.84 146.74 98.9627 147.113 99.208C147.497 99.4427 147.748 99.7947 147.865 100.264V96.2ZM146.073 99.96C145.764 99.96 145.513 100.045 145.321 100.216C145.129 100.387 144.975 100.611 144.857 100.888C144.751 101.165 144.676 101.491 144.633 101.864C144.591 102.237 144.569 102.621 144.569 103.016C144.569 103.421 144.591 103.805 144.633 104.168C144.676 104.531 144.751 104.851 144.857 105.128C144.975 105.405 145.129 105.629 145.321 105.8C145.513 105.96 145.764 106.04 146.073 106.04C146.372 106.04 146.633 105.981 146.857 105.864C147.081 105.747 147.268 105.587 147.417 105.384C147.567 105.181 147.679 104.957 147.753 104.712C147.828 104.456 147.865 104.189 147.865 103.912V101.944C147.865 101.4 147.716 100.936 147.417 100.552C147.119 100.157 146.671 99.96 146.073 99.96ZM157.377 110.44C156.417 109.757 155.713 108.803 155.265 107.576C154.817 106.349 154.593 104.824 154.593 103C154.593 101.176 154.817 99.6453 155.265 98.408C155.713 97.16 156.417 96.184 157.377 95.48H158.497C158.038 95.9493 157.665 96.456 157.377 97C157.089 97.544 156.859 98.1307 156.689 98.76C156.529 99.3787 156.417 100.045 156.353 100.76C156.299 101.464 156.273 102.205 156.273 102.984C156.273 103.773 156.299 104.52 156.353 105.224C156.417 105.917 156.529 106.573 156.689 107.192C156.859 107.821 157.089 108.403 157.377 108.936C157.665 109.48 158.038 109.981 158.497 110.44H157.377ZM161.251 101.368C160.75 101.368 160.35 101.299 160.051 101.16C159.753 101.011 159.518 100.803 159.347 100.536C159.187 100.269 159.081 99.9493 159.027 99.576C158.974 99.2027 158.947 98.7867 158.947 98.328C158.947 97.88 158.974 97.4693 159.027 97.096C159.081 96.7227 159.187 96.408 159.347 96.152C159.518 95.8853 159.753 95.6827 160.051 95.544C160.35 95.3947 160.75 95.32 161.251 95.32C161.742 95.32 162.137 95.3947 162.435 95.544C162.745 95.6933 162.985 95.9013 163.155 96.168C163.326 96.4347 163.438 96.7547 163.491 97.128C163.555 97.5013 163.587 97.912 163.587 98.36C163.587 98.808 163.561 99.2187 163.507 99.592C163.454 99.9653 163.342 100.285 163.171 100.552C163.001 100.808 162.761 101.011 162.451 101.16C162.153 101.299 161.753 101.368 161.251 101.368ZM161.299 100.424C161.555 100.424 161.753 100.376 161.891 100.28C162.041 100.184 162.147 100.051 162.211 99.88C162.286 99.6987 162.334 99.4853 162.355 99.24C162.377 98.984 162.387 98.696 162.387 98.376C162.387 98.056 162.377 97.768 162.355 97.512C162.345 97.256 162.302 97.0373 162.227 96.856C162.153 96.6747 162.041 96.536 161.891 96.44C161.742 96.3333 161.539 96.28 161.283 96.28C161.027 96.28 160.819 96.328 160.659 96.424C160.51 96.52 160.398 96.6587 160.323 96.84C160.249 97.0107 160.201 97.224 160.179 97.48C160.158 97.736 160.147 98.0293 160.147 98.36C160.147 98.6907 160.158 98.984 160.179 99.24C160.201 99.496 160.249 99.7147 160.323 99.896C160.409 100.067 160.526 100.2 160.675 100.296C160.825 100.381 161.033 100.424 161.299 100.424ZM161.443 107L166.883 95.48H167.875L162.435 107H161.443ZM168.003 107.16C167.502 107.16 167.102 107.091 166.803 106.952C166.505 106.803 166.27 106.595 166.099 106.328C165.939 106.061 165.833 105.741 165.779 105.368C165.726 104.995 165.699 104.579 165.699 104.12C165.699 103.672 165.726 103.261 165.779 102.888C165.833 102.515 165.939 102.2 166.099 101.944C166.27 101.677 166.505 101.475 166.803 101.336C167.102 101.187 167.502 101.112 168.003 101.112C168.494 101.112 168.889 101.187 169.187 101.336C169.497 101.485 169.737 101.693 169.907 101.96C170.078 102.227 170.19 102.547 170.243 102.92C170.307 103.293 170.339 103.704 170.339 104.152C170.339 104.6 170.313 105.011 170.259 105.384C170.206 105.757 170.094 106.077 169.923 106.344C169.753 106.6 169.513 106.803 169.203 106.952C168.905 107.091 168.505 107.16 168.003 107.16ZM168.051 106.216C168.307 106.216 168.505 106.168 168.643 106.072C168.793 105.976 168.899 105.843 168.963 105.672C169.038 105.491 169.086 105.277 169.107 105.032C169.129 104.776 169.139 104.488 169.139 104.168C169.139 103.848 169.129 103.56 169.107 103.304C169.097 103.048 169.054 102.829 168.979 102.648C168.905 102.467 168.793 102.328 168.643 102.232C168.494 102.125 168.291 102.072 168.035 102.072C167.779 102.072 167.571 102.12 167.411 102.216C167.262 102.312 167.15 102.451 167.075 102.632C167.001 102.803 166.953 103.016 166.931 103.272C166.91 103.528 166.899 103.821 166.899 104.152C166.899 104.483 166.91 104.776 166.931 105.032C166.953 105.288 167.001 105.507 167.075 105.688C167.161 105.859 167.278 105.992 167.427 106.088C167.577 106.173 167.785 106.216 168.051 106.216ZM170.782 110.44C171.241 109.981 171.614 109.48 171.902 108.936C172.19 108.403 172.414 107.827 172.574 107.208C172.745 106.589 172.857 105.933 172.91 105.24C172.974 104.536 173.006 103.795 173.006 103.016C173.006 102.227 172.974 101.48 172.91 100.776C172.857 100.061 172.745 99.3893 172.574 98.76C172.414 98.1307 172.19 97.544 171.902 97C171.614 96.456 171.241 95.9493 170.782 95.48H171.902C172.862 96.184 173.566 97.16 174.014 98.408C174.462 99.6453 174.686 101.181 174.686 103.016C174.686 104.819 174.462 106.333 174.014 107.56C173.566 108.797 172.862 109.757 171.902 110.44H170.782Z" fill="white" fill-opacity="0.3"/>
</g>
<defs>
<filter id="filter0_i_2_810" x="0" y="0" width="293" height="293" filterUnits="userSpaceOnUse" color-interpolation-filters="sRGB">
<feFlood flood-opacity="0" result="BackgroundImageFix"/>
<feBlend mode="normal" in="SourceGraphic" in2="BackgroundImageFix" result="shape"/>
<feColorMatrix in="SourceAlpha" type="matrix" values="0 0 0 0 0 0 0 0 0 0 0 0 0 0 0 0 0 0 127 0" result="hardAlpha"/>
<feOffset/>
<feGaussianBlur stdDeviation="24"/>
<feComposite in2="hardAlpha" operator="arithmetic" k2="-1" k3="1"/>
<feColorMatrix type="matrix" values="0 0 0 0 0 0 0 0 0 0 0 0 0 0 0 0 0 0 0.75 0"/>
<feBlend mode="normal" in2="shape" result="effect1_innerShadow_2_810"/>
</filter>
</defs>
</svg>
