<svg width="503" height="503" viewBox="0 0 503 503" fill="none" xmlns="http://www.w3.org/2000/svg">
<g filter="url(#filter0_i_2_276)">
<rect x="5" y="5" width="493" height="493" rx="246.5" stroke="#222222" stroke-width="10"/>
<circle cx="252" cy="252" r="250" fill="#444444"/>
<path d="M254.35 251.5C254.35 252.256 254.05 252.981 253.516 253.515C252.981 254.049 252.256 254.35 251.501 254.35C250.745 254.35 250.02 254.05 249.486 253.516C248.951 252.982 248.65 252.257 248.65 251.501C248.65 250.746 248.949 250.021 249.484 249.486C250.018 248.951 250.742 248.651 251.498 248.65C252.254 248.649 252.979 248.949 253.514 249.483C254.048 250.017 254.349 250.741 254.35 251.497" fill="white"/>
<path d="M66.5002 406.733L81.8211 393.877" stroke="white" stroke-width="4.25" stroke-miterlimit="10"/>
<path d="M113.255 353.356C115.231 353.356 116.853 353.635 118.119 354.192C119.386 354.749 120.387 355.611 121.121 356.776C121.628 357.561 122.021 358.461 122.299 359.474C122.578 360.462 122.717 361.589 122.717 362.856C122.717 363.92 122.616 365.009 122.413 366.124C122.211 367.239 121.919 368.315 121.539 369.354C121.159 370.393 120.703 371.381 120.171 372.318C119.665 373.23 119.095 374.028 118.461 374.712C117.321 375.979 116.017 376.878 114.547 377.41C113.078 377.917 111.292 378.17 109.189 378.17C107.163 378.17 105.516 377.942 104.249 377.486C103.008 377.03 102.02 376.295 101.285 375.282C100.677 374.547 100.221 373.623 99.9172 372.508C99.6385 371.368 99.4992 370.051 99.4992 368.556C99.4992 367.213 99.6259 365.909 99.8792 364.642C100.133 363.35 100.5 362.147 100.981 361.032C101.488 359.917 102.096 358.904 102.805 357.992C103.515 357.08 104.325 356.307 105.237 355.674C106.301 354.914 107.479 354.344 108.771 353.964C110.089 353.559 111.583 353.356 113.255 353.356ZM109.113 375.51C109.62 375.51 110.101 375.244 110.557 374.712C111.039 374.18 111.482 373.483 111.887 372.622C112.293 371.735 112.647 370.735 112.951 369.62C113.281 368.48 113.559 367.315 113.787 366.124C114.015 364.908 114.193 363.73 114.319 362.59C114.446 361.425 114.509 360.361 114.509 359.398C114.509 358.106 114.395 357.219 114.167 356.738C113.939 356.231 113.61 355.978 113.179 355.978C112.647 355.978 112.141 356.244 111.659 356.776C111.178 357.283 110.735 357.967 110.329 358.828C109.924 359.664 109.544 360.639 109.189 361.754C108.86 362.869 108.569 364.009 108.315 365.174C108.087 366.339 107.91 367.492 107.783 368.632C107.657 369.772 107.593 370.811 107.593 371.748C107.593 373.167 107.733 374.155 108.011 374.712C108.29 375.244 108.657 375.51 109.113 375.51Z" fill="white"/>
<path d="M46.4177 379.028L59.1557 371.107" stroke="white" stroke-width="1.7" stroke-miterlimit="10"/>
<path d="M30.4523 348.763L48.7585 340.708" stroke="white" stroke-width="1.7" stroke-miterlimit="10"/>
<path d="M18.9246 316.546L33.3703 312.506" stroke="white" stroke-width="1.7" stroke-miterlimit="10"/>
<path d="M12.066 283.022L31.8949 280.412" stroke="white" stroke-width="4.25" stroke-miterlimit="10"/>
<path d="M47.7679 281.884C49.5159 281.326 51.2132 280.63 52.8599 279.794C54.5066 278.932 55.9759 277.906 57.2679 276.716C58.5599 275.5 59.5859 274.094 60.3459 272.498C61.1312 270.902 61.5239 269.065 61.5239 266.988C61.5239 265.974 61.4226 265.189 61.2199 264.632C61.0172 264.074 60.6626 263.796 60.1559 263.796C59.6999 263.796 59.2692 264.011 58.8639 264.442C58.4839 264.872 58.1292 265.417 57.7999 266.076C57.4959 266.734 57.2046 267.469 56.9259 268.28C56.6726 269.09 56.4572 269.876 56.2799 270.636H49.4019L50.6559 264.936C52.0746 263.72 53.5692 262.782 55.1399 262.124C56.7106 261.44 58.4839 261.098 60.4599 261.098C61.6759 261.098 62.8159 261.237 63.8799 261.516C64.9692 261.794 65.9066 262.238 66.6919 262.846C67.5026 263.428 68.1359 264.176 68.5919 265.088C69.0732 265.974 69.3139 267.038 69.3139 268.28C69.3139 269.217 69.1492 270.142 68.8199 271.054C68.5159 271.966 67.9586 272.916 67.1479 273.904C66.3626 274.866 65.2859 275.88 63.9179 276.944C62.5752 277.982 60.8652 279.11 58.7879 280.326H67.2619L66.5019 285.608H46.9319L47.7679 281.884ZM84.9233 261.098C86.8993 261.098 88.5206 261.376 89.7873 261.934C91.054 262.491 92.0546 263.352 92.7893 264.518C93.296 265.303 93.6886 266.202 93.9673 267.216C94.246 268.204 94.3853 269.331 94.3853 270.598C94.3853 271.662 94.284 272.751 94.0813 273.866C93.8786 274.98 93.5873 276.057 93.2073 277.096C92.8273 278.134 92.3713 279.122 91.8393 280.06C91.3326 280.972 90.7626 281.77 90.1293 282.454C88.9893 283.72 87.6846 284.62 86.2153 285.152C84.746 285.658 82.96 285.912 80.8573 285.912C78.8306 285.912 77.184 285.684 75.9173 285.228C74.676 284.772 73.688 284.037 72.9533 283.024C72.3453 282.289 71.8893 281.364 71.5853 280.25C71.3066 279.11 71.1673 277.792 71.1673 276.298C71.1673 274.955 71.294 273.65 71.5473 272.384C71.8006 271.092 72.168 269.888 72.6493 268.774C73.156 267.659 73.764 266.646 74.4733 265.734C75.1826 264.822 75.9933 264.049 76.9053 263.416C77.9693 262.656 79.1473 262.086 80.4393 261.706C81.7566 261.3 83.2513 261.098 84.9233 261.098ZM80.7813 283.252C81.288 283.252 81.7693 282.986 82.2253 282.454C82.7066 281.922 83.15 281.225 83.5553 280.364C83.9606 279.477 84.3153 278.476 84.6193 277.362C84.9486 276.222 85.2273 275.056 85.4553 273.866C85.6833 272.65 85.8606 271.472 85.9873 270.332C86.114 269.166 86.1773 268.102 86.1773 267.14C86.1773 265.848 86.0633 264.961 85.8353 264.48C85.6073 263.973 85.278 263.72 84.8473 263.72C84.3153 263.72 83.8086 263.986 83.3273 264.518C82.846 265.024 82.4026 265.708 81.9973 266.57C81.592 267.406 81.212 268.381 80.8573 269.496C80.528 270.61 80.2366 271.75 79.9833 272.916C79.7553 274.081 79.578 275.234 79.4513 276.374C79.3246 277.514 79.2613 278.552 79.2613 279.49C79.2613 280.908 79.4006 281.896 79.6793 282.454C79.958 282.986 80.3253 283.252 80.7813 283.252Z" fill="white"/>
<path d="M10.0143 248.866L25.0135 249.029" stroke="white" stroke-width="1.7" stroke-miterlimit="10"/>
<path d="M12.8107 214.762L32.5779 217.805" stroke="white" stroke-width="1.7" stroke-miterlimit="10"/>
<path d="M20.3989 181.396L34.753 185.751" stroke="white" stroke-width="1.7" stroke-miterlimit="10"/>
<path d="M32.6266 149.438L50.7528 157.89" stroke="white" stroke-width="4.25" stroke-miterlimit="10"/>
<path d="M77.9348 183.986H69.7268L70.9808 177.906H61.0628L62.0128 173.46L73.3368 159.856H83.1408L79.9108 174.714H83.3688L82.6848 177.906H79.2268L77.9348 183.986ZM71.6648 174.714L73.9448 164.15L65.5088 174.714H71.6648ZM99.5348 159.476C101.511 159.476 103.132 159.755 104.399 160.312C105.665 160.87 106.666 161.731 107.401 162.896C107.907 163.682 108.3 164.581 108.579 165.594C108.857 166.582 108.997 167.71 108.997 168.976C108.997 170.04 108.895 171.13 108.693 172.244C108.49 173.359 108.199 174.436 107.819 175.474C107.439 176.513 106.983 177.501 106.451 178.438C105.944 179.35 105.374 180.148 104.741 180.832C103.601 182.099 102.296 182.998 100.827 183.53C99.3575 184.037 97.5715 184.29 95.4688 184.29C93.4421 184.29 91.7955 184.062 90.5288 183.606C89.2875 183.15 88.2995 182.416 87.5648 181.402C86.9568 180.668 86.5008 179.743 86.1968 178.628C85.9181 177.488 85.7788 176.171 85.7788 174.676C85.7788 173.334 85.9055 172.029 86.1588 170.762C86.4121 169.47 86.7795 168.267 87.2608 167.152C87.7675 166.038 88.3755 165.024 89.0848 164.112C89.7941 163.2 90.6048 162.428 91.5168 161.794C92.5808 161.034 93.7588 160.464 95.0508 160.084C96.3681 159.679 97.8628 159.476 99.5348 159.476ZM95.3928 181.63C95.8995 181.63 96.3808 181.364 96.8368 180.832C97.3181 180.3 97.7615 179.604 98.1668 178.742C98.5721 177.856 98.9268 176.855 99.2308 175.74C99.5601 174.6 99.8388 173.435 100.067 172.244C100.295 171.028 100.472 169.85 100.599 168.71C100.725 167.545 100.789 166.481 100.789 165.518C100.789 164.226 100.675 163.34 100.447 162.858C100.219 162.352 99.8895 162.098 99.4588 162.098C98.9268 162.098 98.4201 162.364 97.9388 162.896C97.4575 163.403 97.0141 164.087 96.6088 164.948C96.2035 165.784 95.8235 166.76 95.4688 167.874C95.1395 168.989 94.8481 170.129 94.5948 171.294C94.3668 172.46 94.1895 173.612 94.0628 174.752C93.9361 175.892 93.8728 176.931 93.8728 177.868C93.8728 179.287 94.0121 180.275 94.2908 180.832C94.5695 181.364 94.9368 181.63 95.3928 181.63Z" fill="white"/>
<path d="M49.2485 119.528L61.8107 127.725" stroke="white" stroke-width="1.7" stroke-miterlimit="10"/>
<path d="M69.9307 92.268L84.9675 105.455" stroke="#FF2222" stroke-width="3" stroke-miterlimit="10"/>
<path d="M94.2581 68.2046L104.025 79.5894" stroke="white" stroke-width="1.7" stroke-miterlimit="10"/>
<path d="M121.742 47.821L132.488 64.6888" stroke="white" stroke-width="4.25" stroke-miterlimit="10"/>
<path d="M143.162 83.6952C143.643 83.6952 144.188 83.7205 144.796 83.7712C145.429 83.8219 146.063 83.9105 146.696 84.0372C147.355 84.1385 147.988 84.2905 148.596 84.4932C149.229 84.6705 149.787 84.9112 150.268 85.2152L149.052 90.5352H143.162C143.187 90.2565 143.213 89.9905 143.238 89.7372C143.263 89.4839 143.276 89.2179 143.276 88.9392C143.276 88.2805 143.2 87.6852 143.048 87.1532C142.896 86.5959 142.605 86.3172 142.174 86.3172C141.87 86.3172 141.515 86.4819 141.11 86.8112C140.705 87.1405 140.287 87.6599 139.856 88.3692C139.425 89.0785 139.02 89.9905 138.64 91.1052C138.26 92.2199 137.943 93.5499 137.69 95.0952H138.07C138.805 94.2845 139.704 93.6639 140.768 93.2332C141.857 92.8025 142.972 92.5872 144.112 92.5872C146.063 92.5872 147.456 93.1825 148.292 94.3732C149.128 95.5385 149.546 97.1345 149.546 99.1612C149.546 100.707 149.305 102.049 148.824 103.189C148.343 104.304 147.57 105.279 146.506 106.115C145.594 106.825 144.441 107.407 143.048 107.863C141.68 108.294 140.059 108.509 138.184 108.509C136.841 108.509 135.6 108.37 134.46 108.091C133.345 107.787 132.37 107.281 131.534 106.571C130.723 105.837 130.09 104.861 129.634 103.645C129.178 102.404 128.95 100.846 128.95 98.9712C128.95 96.9699 129.229 95.0445 129.786 93.1952C130.369 91.3459 131.243 89.7245 132.408 88.3312C133.573 86.9125 135.043 85.7852 136.816 84.9492C138.615 84.1132 140.73 83.6952 143.162 83.6952ZM137.994 105.925C138.602 105.925 139.134 105.647 139.59 105.089C140.046 104.532 140.413 103.848 140.692 103.037C140.971 102.227 141.173 101.365 141.3 100.453C141.452 99.5159 141.528 98.6799 141.528 97.9452C141.528 97.3372 141.452 96.8685 141.3 96.5392C141.173 96.2099 140.857 96.0452 140.35 96.0452C139.666 96.0452 139.083 96.3365 138.602 96.9192C138.121 97.4765 137.715 98.1605 137.386 98.9712C137.082 99.7565 136.854 100.58 136.702 101.441C136.575 102.303 136.512 103.025 136.512 103.607C136.512 104.317 136.626 104.887 136.854 105.317C137.082 105.723 137.462 105.925 137.994 105.925ZM166.16 83.6952C168.136 83.6952 169.758 83.9739 171.024 84.5312C172.291 85.0885 173.292 85.9499 174.026 87.1152C174.533 87.9005 174.926 88.7999 175.204 89.8132C175.483 90.8012 175.622 91.9285 175.622 93.1952C175.622 94.2592 175.521 95.3485 175.318 96.4632C175.116 97.5779 174.824 98.6545 174.444 99.6932C174.064 100.732 173.608 101.72 173.076 102.657C172.57 103.569 172 104.367 171.366 105.051C170.226 106.318 168.922 107.217 167.452 107.749C165.983 108.256 164.197 108.509 162.094 108.509C160.068 108.509 158.421 108.281 157.154 107.825C155.913 107.369 154.925 106.635 154.19 105.621C153.582 104.887 153.126 103.962 152.822 102.847C152.543 101.707 152.404 100.39 152.404 98.8952C152.404 97.5525 152.531 96.2479 152.784 94.9812C153.037 93.6892 153.405 92.4859 153.886 91.3712C154.393 90.2565 155.001 89.2432 155.71 88.3312C156.42 87.4192 157.23 86.6465 158.142 86.0132C159.206 85.2532 160.384 84.6832 161.676 84.3032C162.994 83.8979 164.488 83.6952 166.16 83.6952ZM162.018 105.849C162.525 105.849 163.006 105.583 163.462 105.051C163.944 104.519 164.387 103.823 164.792 102.961C165.198 102.075 165.552 101.074 165.856 99.9592C166.186 98.8192 166.464 97.6539 166.692 96.4632C166.92 95.2472 167.098 94.0692 167.224 92.9292C167.351 91.7639 167.414 90.6999 167.414 89.7372C167.414 88.4452 167.3 87.5585 167.072 87.0772C166.844 86.5705 166.515 86.3172 166.084 86.3172C165.552 86.3172 165.046 86.5832 164.564 87.1152C164.083 87.6219 163.64 88.3059 163.234 89.1672C162.829 90.0032 162.449 90.9785 162.094 92.0932C161.765 93.2079 161.474 94.3479 161.22 95.5132C160.992 96.6785 160.815 97.8312 160.688 98.9712C160.562 100.111 160.498 101.15 160.498 102.087C160.498 103.506 160.638 104.494 160.916 105.051C161.195 105.583 161.562 105.849 162.018 105.849Z" fill="white"/>
<path d="M151.831 31.5264L158.022 45.1893" stroke="white" stroke-width="1.7" stroke-miterlimit="10"/>
<path d="M183.921 19.648L189.518 38.849" stroke="white" stroke-width="1.7" stroke-miterlimit="10"/>
<path d="M217.368 12.4242L219.488 27.2736" stroke="white" stroke-width="1.7" stroke-miterlimit="10"/>
<path d="M251.5 10V30" stroke="white" stroke-width="4.25" stroke-miterlimit="10"/>
<path d="M236.308 77.304C233.217 77.304 230.886 76.7087 229.316 75.518C227.77 74.3273 226.998 72.6553 226.998 70.502C226.998 69.0327 227.39 67.7407 228.176 66.626C228.986 65.486 230.38 64.5867 232.356 63.928C231.545 63.6493 230.836 63.1427 230.228 62.408C229.62 61.6733 229.316 60.698 229.316 59.482C229.316 58.3167 229.62 57.3033 230.228 56.442C230.836 55.5553 231.634 54.8207 232.622 54.238C233.61 53.6553 234.75 53.2247 236.042 52.946C237.334 52.6673 238.664 52.528 240.032 52.528C241.729 52.528 243.122 52.718 244.212 53.098C245.301 53.478 246.162 53.972 246.796 54.58C247.429 55.1627 247.86 55.8213 248.088 56.556C248.316 57.2653 248.43 57.9493 248.43 58.608C248.43 59.5707 248.252 60.394 247.898 61.078C247.568 61.7367 247.163 62.2813 246.682 62.712C246.2 63.1427 245.694 63.4847 245.162 63.738C244.655 63.966 244.237 64.118 243.908 64.194C245.073 64.4727 246.023 65.0807 246.758 66.018C247.518 66.93 247.898 68.0827 247.898 69.476C247.898 70.5653 247.632 71.5913 247.1 72.554C246.568 73.4913 245.808 74.3147 244.82 75.024C243.832 75.7333 242.616 76.2907 241.172 76.696C239.753 77.1013 238.132 77.304 236.308 77.304ZM238.246 62.94C238.778 62.94 239.221 62.7627 239.576 62.408C239.956 62.0533 240.26 61.61 240.488 61.078C240.716 60.546 240.88 59.976 240.982 59.368C241.083 58.7347 241.134 58.1393 241.134 57.582C241.134 57.3033 241.121 57.0247 241.096 56.746C241.07 56.442 241.007 56.176 240.906 55.948C240.804 55.6947 240.652 55.492 240.45 55.34C240.247 55.188 239.968 55.112 239.614 55.112C239.082 55.112 238.626 55.2893 238.246 55.644C237.891 55.9733 237.6 56.3913 237.372 56.898C237.144 57.4047 236.966 57.9747 236.84 58.608C236.738 59.2413 236.688 59.8367 236.688 60.394C236.688 60.698 236.7 61.002 236.726 61.306C236.751 61.5847 236.814 61.8507 236.916 62.104C237.042 62.3573 237.207 62.56 237.41 62.712C237.612 62.864 237.891 62.94 238.246 62.94ZM236.802 74.682C237.334 74.682 237.777 74.4793 238.132 74.074C238.512 73.6687 238.803 73.1493 239.006 72.516C239.234 71.8827 239.386 71.1987 239.462 70.464C239.563 69.7293 239.614 69.02 239.614 68.336C239.614 67.576 239.525 66.93 239.348 66.398C239.196 65.8407 238.79 65.562 238.132 65.562C237.6 65.562 237.144 65.7647 236.764 66.17C236.384 66.55 236.067 67.044 235.814 67.652C235.586 68.2347 235.408 68.8933 235.282 69.628C235.18 70.3373 235.13 71.0087 235.13 71.642C235.13 72.4273 235.244 73.1367 235.472 73.77C235.7 74.378 236.143 74.682 236.802 74.682ZM265.002 52.49C266.978 52.49 268.599 52.7687 269.866 53.326C271.133 53.8833 272.133 54.7447 272.868 55.91C273.375 56.6953 273.767 57.5947 274.046 58.608C274.325 59.596 274.464 60.7233 274.464 61.99C274.464 63.054 274.363 64.1433 274.16 65.258C273.957 66.3727 273.666 67.4493 273.286 68.488C272.906 69.5267 272.45 70.5147 271.918 71.452C271.411 72.364 270.841 73.162 270.208 73.846C269.068 75.1127 267.763 76.012 266.294 76.544C264.825 77.0507 263.039 77.304 260.936 77.304C258.909 77.304 257.263 77.076 255.996 76.62C254.755 76.164 253.767 75.4293 253.032 74.416C252.424 73.6813 251.968 72.7567 251.664 71.642C251.385 70.502 251.246 69.1847 251.246 67.69C251.246 66.3473 251.373 65.0427 251.626 63.776C251.879 62.484 252.247 61.2807 252.728 60.166C253.235 59.0513 253.843 58.038 254.552 57.126C255.261 56.214 256.072 55.4413 256.984 54.808C258.048 54.048 259.226 53.478 260.518 53.098C261.835 52.6927 263.33 52.49 265.002 52.49ZM260.86 74.644C261.367 74.644 261.848 74.378 262.304 73.846C262.785 73.314 263.229 72.6173 263.634 71.756C264.039 70.8693 264.394 69.8687 264.698 68.754C265.027 67.614 265.306 66.4487 265.534 65.258C265.762 64.042 265.939 62.864 266.066 61.724C266.193 60.5587 266.256 59.4947 266.256 58.532C266.256 57.24 266.142 56.3533 265.914 55.872C265.686 55.3653 265.357 55.112 264.926 55.112C264.394 55.112 263.887 55.378 263.406 55.91C262.925 56.4167 262.481 57.1007 262.076 57.962C261.671 58.798 261.291 59.7733 260.936 60.888C260.607 62.0027 260.315 63.1427 260.062 64.308C259.834 65.4733 259.657 66.626 259.53 67.766C259.403 68.906 259.34 69.9447 259.34 70.882C259.34 72.3007 259.479 73.2887 259.758 73.846C260.037 74.378 260.404 74.644 260.86 74.644Z" fill="white"/>
<path d="M285.632 12.4242L283.512 27.2736" stroke="white" stroke-width="1.7" stroke-miterlimit="10"/>
<path d="M319.079 19.648L313.482 38.849" stroke="white" stroke-width="1.7" stroke-miterlimit="10"/>
<path d="M351.169 31.5264L344.978 45.1893" stroke="white" stroke-width="1.7" stroke-miterlimit="10"/>
<path d="M381.258 47.821L370.512 64.6888" stroke="white" stroke-width="4.25" stroke-miterlimit="10"/>
<path d="M314.628 87.9892C316.199 87.7612 317.618 87.2925 318.884 86.5832C320.176 85.8739 321.202 85.0379 321.962 84.0752H327.776L322.608 108.205H314.4L318.162 90.5352H314.058L314.628 87.9892ZM342.348 83.6952C344.324 83.6952 345.945 83.9739 347.212 84.5312C348.479 85.0885 349.479 85.9499 350.214 87.1152C350.721 87.9005 351.113 88.7999 351.392 89.8132C351.671 90.8012 351.81 91.9285 351.81 93.1952C351.81 94.2592 351.709 95.3485 351.506 96.4632C351.303 97.5779 351.012 98.6545 350.632 99.6932C350.252 100.732 349.796 101.72 349.264 102.657C348.757 103.569 348.187 104.367 347.554 105.051C346.414 106.318 345.109 107.217 343.64 107.749C342.171 108.256 340.385 108.509 338.282 108.509C336.255 108.509 334.609 108.281 333.342 107.825C332.101 107.369 331.113 106.635 330.378 105.621C329.77 104.887 329.314 103.962 329.01 102.847C328.731 101.707 328.592 100.39 328.592 98.8952C328.592 97.5525 328.719 96.2479 328.972 94.9812C329.225 93.6892 329.593 92.4859 330.074 91.3712C330.581 90.2565 331.189 89.2432 331.898 88.3312C332.607 87.4192 333.418 86.6465 334.33 86.0132C335.394 85.2532 336.572 84.6832 337.864 84.3032C339.181 83.8979 340.676 83.6952 342.348 83.6952ZM338.206 105.849C338.713 105.849 339.194 105.583 339.65 105.051C340.131 104.519 340.575 103.823 340.98 102.961C341.385 102.075 341.74 101.074 342.044 99.9592C342.373 98.8192 342.652 97.6539 342.88 96.4632C343.108 95.2472 343.285 94.0692 343.412 92.9292C343.539 91.7639 343.602 90.6999 343.602 89.7372C343.602 88.4452 343.488 87.5585 343.26 87.0772C343.032 86.5705 342.703 86.3172 342.272 86.3172C341.74 86.3172 341.233 86.5832 340.752 87.1152C340.271 87.6219 339.827 88.3059 339.422 89.1672C339.017 90.0032 338.637 90.9785 338.282 92.0932C337.953 93.2079 337.661 94.3479 337.408 95.5132C337.18 96.6785 337.003 97.8312 336.876 98.9712C336.749 100.111 336.686 101.15 336.686 102.087C336.686 103.506 336.825 104.494 337.104 105.051C337.383 105.583 337.75 105.849 338.206 105.849ZM367.731 83.6952C369.707 83.6952 371.328 83.9739 372.595 84.5312C373.861 85.0885 374.862 85.9499 375.597 87.1152C376.103 87.9005 376.496 88.7999 376.775 89.8132C377.053 90.8012 377.193 91.9285 377.193 93.1952C377.193 94.2592 377.091 95.3485 376.889 96.4632C376.686 97.5779 376.395 98.6545 376.015 99.6932C375.635 100.732 375.179 101.72 374.647 102.657C374.14 103.569 373.57 104.367 372.937 105.051C371.797 106.318 370.492 107.217 369.023 107.749C367.553 108.256 365.767 108.509 363.665 108.509C361.638 108.509 359.991 108.281 358.725 107.825C357.483 107.369 356.495 106.635 355.761 105.621C355.153 104.887 354.697 103.962 354.393 102.847C354.114 101.707 353.975 100.39 353.975 98.8952C353.975 97.5525 354.101 96.2479 354.355 94.9812C354.608 93.6892 354.975 92.4859 355.457 91.3712C355.963 90.2565 356.571 89.2432 357.281 88.3312C357.99 87.4192 358.801 86.6465 359.713 86.0132C360.777 85.2532 361.955 84.6832 363.247 84.3032C364.564 83.8979 366.059 83.6952 367.731 83.6952ZM363.589 105.849C364.095 105.849 364.577 105.583 365.033 105.051C365.514 104.519 365.957 103.823 366.363 102.961C366.768 102.075 367.123 101.074 367.427 99.9592C367.756 98.8192 368.035 97.6539 368.263 96.4632C368.491 95.2472 368.668 94.0692 368.795 92.9292C368.921 91.7639 368.985 90.6999 368.985 89.7372C368.985 88.4452 368.871 87.5585 368.643 87.0772C368.415 86.5705 368.085 86.3172 367.655 86.3172C367.123 86.3172 366.616 86.5832 366.135 87.1152C365.653 87.6219 365.21 88.3059 364.805 89.1672C364.399 90.0032 364.019 90.9785 363.665 92.0932C363.335 93.2079 363.044 94.3479 362.791 95.5132C362.563 96.6785 362.385 97.8312 362.259 98.9712C362.132 100.111 362.069 101.15 362.069 102.087C362.069 103.506 362.208 104.494 362.487 105.051C362.765 105.583 363.133 105.849 363.589 105.849Z" fill="white"/>
<path d="M408.742 68.2046L398.975 79.5894" stroke="white" stroke-width="1.7" stroke-miterlimit="10"/>
<path d="M433.069 92.268L418.032 105.455" stroke="white" stroke-width="1.7" stroke-miterlimit="10"/>
<path d="M453.752 119.528L441.189 127.725" stroke="white" stroke-width="1.7" stroke-miterlimit="10"/>
<path d="M470.373 149.438L452.247 157.89" stroke="white" stroke-width="4.25" stroke-miterlimit="10"/>
<path d="M383.015 163.77C384.586 163.542 386.005 163.074 387.271 162.364C388.563 161.655 389.589 160.819 390.349 159.856H396.163L390.995 183.986H382.787L386.549 166.316H382.445L383.015 163.77ZM396.105 180.262C397.853 179.705 399.55 179.008 401.197 178.172C402.844 177.311 404.313 176.285 405.605 175.094C406.897 173.878 407.923 172.472 408.683 170.876C409.468 169.28 409.861 167.444 409.861 165.366C409.861 164.353 409.76 163.568 409.557 163.01C409.354 162.453 409 162.174 408.493 162.174C408.037 162.174 407.606 162.39 407.201 162.82C406.821 163.251 406.466 163.796 406.137 164.454C405.833 165.113 405.542 165.848 405.263 166.658C405.01 167.469 404.794 168.254 404.617 169.014H397.739L398.993 163.314C400.412 162.098 401.906 161.161 403.477 160.502C405.048 159.818 406.821 159.476 408.797 159.476C410.013 159.476 411.153 159.616 412.217 159.894C413.306 160.173 414.244 160.616 415.029 161.224C415.84 161.807 416.473 162.554 416.929 163.466C417.41 164.353 417.651 165.417 417.651 166.658C417.651 167.596 417.486 168.52 417.157 169.432C416.853 170.344 416.296 171.294 415.485 172.282C414.7 173.245 413.623 174.258 412.255 175.322C410.912 176.361 409.202 177.488 407.125 178.704H415.599L414.839 183.986H395.269L396.105 180.262ZM433.26 159.476C435.236 159.476 436.858 159.755 438.124 160.312C439.391 160.87 440.392 161.731 441.126 162.896C441.633 163.682 442.026 164.581 442.304 165.594C442.583 166.582 442.722 167.71 442.722 168.976C442.722 170.04 442.621 171.13 442.418 172.244C442.216 173.359 441.924 174.436 441.544 175.474C441.164 176.513 440.708 177.501 440.176 178.438C439.67 179.35 439.1 180.148 438.466 180.832C437.326 182.099 436.022 182.998 434.552 183.53C433.083 184.037 431.297 184.29 429.194 184.29C427.168 184.29 425.521 184.062 424.254 183.606C423.013 183.15 422.025 182.416 421.29 181.402C420.682 180.668 420.226 179.743 419.922 178.628C419.644 177.488 419.504 176.171 419.504 174.676C419.504 173.334 419.631 172.029 419.884 170.762C420.138 169.47 420.505 168.267 420.986 167.152C421.493 166.038 422.101 165.024 422.81 164.112C423.52 163.2 424.33 162.428 425.242 161.794C426.306 161.034 427.484 160.464 428.776 160.084C430.094 159.679 431.588 159.476 433.26 159.476ZM429.118 181.63C429.625 181.63 430.106 181.364 430.562 180.832C431.044 180.3 431.487 179.604 431.892 178.742C432.298 177.856 432.652 176.855 432.956 175.74C433.286 174.6 433.564 173.435 433.792 172.244C434.02 171.028 434.198 169.85 434.324 168.71C434.451 167.545 434.514 166.481 434.514 165.518C434.514 164.226 434.4 163.34 434.172 162.858C433.944 162.352 433.615 162.098 433.184 162.098C432.652 162.098 432.146 162.364 431.664 162.896C431.183 163.403 430.74 164.087 430.334 164.948C429.929 165.784 429.549 166.76 429.194 167.874C428.865 168.989 428.574 170.129 428.32 171.294C428.092 172.46 427.915 173.612 427.788 174.752C427.662 175.892 427.598 176.931 427.598 177.868C427.598 179.287 427.738 180.275 428.016 180.832C428.295 181.364 428.662 181.63 429.118 181.63Z" fill="white"/>
<path d="M482.601 181.396L468.247 185.751" stroke="white" stroke-width="1.7" stroke-miterlimit="10"/>
<path d="M490.189 214.762L470.422 217.805" stroke="white" stroke-width="1.7" stroke-miterlimit="10"/>
<path d="M492.986 248.866L477.987 249.029" stroke="white" stroke-width="1.7" stroke-miterlimit="10"/>
<path d="M490.934 283.022L471.105 280.412" stroke="white" stroke-width="4.25" stroke-miterlimit="10"/>
<path d="M396.57 265.392C398.141 265.164 399.56 264.695 400.826 263.986C402.118 263.276 403.144 262.44 403.904 261.478H409.718L404.55 285.608H396.342L400.104 267.938H396L396.57 265.392ZM425.772 285.608H417.564L418.818 279.528H408.9L409.85 275.082L421.174 261.478H430.978L427.748 276.336H431.206L430.522 279.528H427.064L425.772 285.608ZM419.502 276.336L421.782 265.772L413.346 276.336H419.502ZM447.372 261.098C449.348 261.098 450.969 261.376 452.236 261.934C453.502 262.491 454.503 263.352 455.238 264.518C455.744 265.303 456.137 266.202 456.416 267.216C456.694 268.204 456.834 269.331 456.834 270.598C456.834 271.662 456.732 272.751 456.53 273.866C456.327 274.98 456.036 276.057 455.656 277.096C455.276 278.134 454.82 279.122 454.288 280.06C453.781 280.972 453.211 281.77 452.578 282.454C451.438 283.72 450.133 284.62 448.664 285.152C447.194 285.658 445.408 285.912 443.306 285.912C441.279 285.912 439.632 285.684 438.366 285.228C437.124 284.772 436.136 284.037 435.402 283.024C434.794 282.289 434.338 281.364 434.034 280.25C433.755 279.11 433.616 277.792 433.616 276.298C433.616 274.955 433.742 273.65 433.996 272.384C434.249 271.092 434.616 269.888 435.098 268.774C435.604 267.659 436.212 266.646 436.922 265.734C437.631 264.822 438.442 264.049 439.354 263.416C440.418 262.656 441.596 262.086 442.888 261.706C444.205 261.3 445.7 261.098 447.372 261.098ZM443.23 283.252C443.736 283.252 444.218 282.986 444.674 282.454C445.155 281.922 445.598 281.225 446.004 280.364C446.409 279.477 446.764 278.476 447.068 277.362C447.397 276.222 447.676 275.056 447.904 273.866C448.132 272.65 448.309 271.472 448.436 270.332C448.562 269.166 448.626 268.102 448.626 267.14C448.626 265.848 448.512 264.961 448.284 264.48C448.056 263.973 447.726 263.72 447.296 263.72C446.764 263.72 446.257 263.986 445.776 264.518C445.294 265.024 444.851 265.708 444.446 266.57C444.04 267.406 443.66 268.381 443.306 269.496C442.976 270.61 442.685 271.75 442.432 272.916C442.204 274.081 442.026 275.234 441.9 276.374C441.773 277.514 441.71 278.552 441.71 279.49C441.71 280.908 441.849 281.896 442.128 282.454C442.406 282.986 442.774 283.252 443.23 283.252Z" fill="white"/>
<path d="M484.075 316.546L469.63 312.506" stroke="white" stroke-width="1.7" stroke-miterlimit="10"/>
<path d="M472.548 348.763L454.241 340.708" stroke="white" stroke-width="1.7" stroke-miterlimit="10"/>
<path d="M456.582 379.028L443.844 371.107" stroke="white" stroke-width="1.7" stroke-miterlimit="10"/>
<path d="M436.5 406.733L421.179 393.877" stroke="white" stroke-width="4.25" stroke-miterlimit="10"/>
<path d="M356.809 357.65C358.379 357.422 359.798 356.953 361.065 356.244C362.357 355.535 363.383 354.699 364.143 353.736H369.957L364.789 377.866H356.581L360.343 360.196H356.239L356.809 357.65ZM384.946 353.356C385.427 353.356 385.972 353.381 386.58 353.432C387.213 353.483 387.847 353.571 388.48 353.698C389.139 353.799 389.772 353.951 390.38 354.154C391.013 354.331 391.571 354.572 392.052 354.876L390.836 360.196H384.946C384.971 359.917 384.997 359.651 385.022 359.398C385.047 359.145 385.06 358.879 385.06 358.6C385.06 357.941 384.984 357.346 384.832 356.814C384.68 356.257 384.389 355.978 383.958 355.978C383.654 355.978 383.299 356.143 382.894 356.472C382.489 356.801 382.071 357.321 381.64 358.03C381.209 358.739 380.804 359.651 380.424 360.766C380.044 361.881 379.727 363.211 379.474 364.756H379.854C380.589 363.945 381.488 363.325 382.552 362.894C383.641 362.463 384.756 362.248 385.896 362.248C387.847 362.248 389.24 362.843 390.076 364.034C390.912 365.199 391.33 366.795 391.33 368.822C391.33 370.367 391.089 371.71 390.608 372.85C390.127 373.965 389.354 374.94 388.29 375.776C387.378 376.485 386.225 377.068 384.832 377.524C383.464 377.955 381.843 378.17 379.968 378.17C378.625 378.17 377.384 378.031 376.244 377.752C375.129 377.448 374.154 376.941 373.318 376.232C372.507 375.497 371.874 374.522 371.418 373.306C370.962 372.065 370.734 370.507 370.734 368.632C370.734 366.631 371.013 364.705 371.57 362.856C372.153 361.007 373.027 359.385 374.192 357.992C375.357 356.573 376.827 355.446 378.6 354.61C380.399 353.774 382.514 353.356 384.946 353.356ZM379.778 375.586C380.386 375.586 380.918 375.307 381.374 374.75C381.83 374.193 382.197 373.509 382.476 372.698C382.755 371.887 382.957 371.026 383.084 370.114C383.236 369.177 383.312 368.341 383.312 367.606C383.312 366.998 383.236 366.529 383.084 366.2C382.957 365.871 382.641 365.706 382.134 365.706C381.45 365.706 380.867 365.997 380.386 366.58C379.905 367.137 379.499 367.821 379.17 368.632C378.866 369.417 378.638 370.241 378.486 371.102C378.359 371.963 378.296 372.685 378.296 373.268C378.296 373.977 378.41 374.547 378.638 374.978C378.866 375.383 379.246 375.586 379.778 375.586ZM407.944 353.356C409.92 353.356 411.541 353.635 412.808 354.192C414.075 354.749 415.075 355.611 415.81 356.776C416.317 357.561 416.709 358.461 416.988 359.474C417.267 360.462 417.406 361.589 417.406 362.856C417.406 363.92 417.305 365.009 417.102 366.124C416.899 367.239 416.608 368.315 416.228 369.354C415.848 370.393 415.392 371.381 414.86 372.318C414.353 373.23 413.783 374.028 413.15 374.712C412.01 375.979 410.705 376.878 409.236 377.41C407.767 377.917 405.981 378.17 403.878 378.17C401.851 378.17 400.205 377.942 398.938 377.486C397.697 377.03 396.709 376.295 395.974 375.282C395.366 374.547 394.91 373.623 394.606 372.508C394.327 371.368 394.188 370.051 394.188 368.556C394.188 367.213 394.315 365.909 394.568 364.642C394.821 363.35 395.189 362.147 395.67 361.032C396.177 359.917 396.785 358.904 397.494 357.992C398.203 357.08 399.014 356.307 399.926 355.674C400.99 354.914 402.168 354.344 403.46 353.964C404.777 353.559 406.272 353.356 407.944 353.356ZM403.802 375.51C404.309 375.51 404.79 375.244 405.246 374.712C405.727 374.18 406.171 373.483 406.576 372.622C406.981 371.735 407.336 370.735 407.64 369.62C407.969 368.48 408.248 367.315 408.476 366.124C408.704 364.908 408.881 363.73 409.008 362.59C409.135 361.425 409.198 360.361 409.198 359.398C409.198 358.106 409.084 357.219 408.856 356.738C408.628 356.231 408.299 355.978 407.868 355.978C407.336 355.978 406.829 356.244 406.348 356.776C405.867 357.283 405.423 357.967 405.018 358.828C404.613 359.664 404.233 360.639 403.878 361.754C403.549 362.869 403.257 364.009 403.004 365.174C402.776 366.339 402.599 367.492 402.472 368.632C402.345 369.772 402.282 370.811 402.282 371.748C402.282 373.167 402.421 374.155 402.7 374.712C402.979 375.244 403.346 375.51 403.802 375.51Z" fill="white"/>
</g>
<defs>
<filter id="filter0_i_2_276" x="0" y="0" width="503" height="503" filterUnits="userSpaceOnUse" color-interpolation-filters="sRGB">
<feFlood flood-opacity="0" result="BackgroundImageFix"/>
<feBlend mode="normal" in="SourceGraphic" in2="BackgroundImageFix" result="shape"/>
<feColorMatrix in="SourceAlpha" type="matrix" values="0 0 0 0 0 0 0 0 0 0 0 0 0 0 0 0 0 0 127 0" result="hardAlpha"/>
<feOffset/>
<feGaussianBlur stdDeviation="24"/>
<feComposite in2="hardAlpha" operator="arithmetic" k2="-1" k3="1"/>
<feColorMatrix type="matrix" values="0 0 0 0 0 0 0 0 0 0 0 0 0 0 0 0 0 0 0.75 0"/>
<feBlend mode="normal" in2="shape" result="effect1_innerShadow_2_276"/>
</filter>
<filter id="filter1_i_2_276" x="164" y="394" width="176" height="64" filterUnits="userSpaceOnUse" color-interpolation-filters="sRGB">
<feFlood flood-opacity="0" result="BackgroundImageFix"/>
<feBlend mode="normal" in="SourceGraphic" in2="BackgroundImageFix" result="shape"/>
<feColorMatrix in="SourceAlpha" type="matrix" values="0 0 0 0 0 0 0 0 0 0 0 0 0 0 0 0 0 0 127 0" result="hardAlpha"/>
<feOffset/>
<feGaussianBlur stdDeviation="4"/>
<feComposite in2="hardAlpha" operator="arithmetic" k2="-1" k3="1"/>
<feColorMatrix type="matrix" values="0 0 0 0 0 0 0 0 0 0 0 0 0 0 0 0 0 0 0.75 0"/>
<feBlend mode="normal" in2="shape" result="effect1_innerShadow_2_276"/>
</filter>
</defs>
</svg>
