<svg width="503" height="503" viewBox="0 0 503 503" fill="none" xmlns="http://www.w3.org/2000/svg">
<g filter="url(#filter0_i_2_392)">
<rect x="5" y="5" width="493" height="493" rx="246.5" stroke="#222222" stroke-width="10"/>
<circle cx="252" cy="252" r="250" fill="#444444"/>
<path d="M501.42 234.974C505.866 300.112 484.654 364.405 442.318 414.109L423.855 398.383C462.084 353.501 481.239 295.445 477.224 236.626L501.42 234.974Z" fill="#FF0000BB"/>
<path d="M254.35 251.5C254.35 252.256 254.05 252.981 253.516 253.515C252.981 254.049 252.256 254.35 251.501 254.35C250.745 254.35 250.02 254.05 249.486 253.516C248.951 252.982 248.65 252.257 248.65 251.501C248.65 250.746 248.949 250.021 249.483 249.486C250.018 248.951 250.742 248.651 251.498 248.65C252.254 248.649 252.979 248.949 253.513 249.483C254.048 250.017 254.349 250.741 254.35 251.497" fill="white"/>
<path d="M66.5003 406.733L81.8212 393.877" stroke="white" stroke-width="4.25" stroke-miterlimit="10"/>
<path d="M111.941 356.91C114.125 356.91 115.917 357.218 117.317 357.834C118.717 358.45 119.823 359.402 120.635 360.69C121.195 361.558 121.629 362.552 121.937 363.672C122.245 364.764 122.399 366.01 122.399 367.41C122.399 368.586 122.287 369.79 122.063 371.022C121.839 372.254 121.517 373.444 121.097 374.592C120.677 375.74 120.173 376.832 119.585 377.868C119.025 378.876 118.395 379.758 117.695 380.514C116.435 381.914 114.993 382.908 113.369 383.496C111.745 384.056 109.771 384.336 107.447 384.336C105.207 384.336 103.387 384.084 101.987 383.58C100.615 383.076 99.5227 382.264 98.7107 381.144C98.0387 380.332 97.5347 379.31 97.1987 378.078C96.8907 376.818 96.7367 375.362 96.7367 373.71C96.7367 372.226 96.8767 370.784 97.1567 369.384C97.4367 367.956 97.8427 366.626 98.3747 365.394C98.9347 364.162 99.6067 363.042 100.391 362.034C101.175 361.026 102.071 360.172 103.079 359.472C104.255 358.632 105.557 358.002 106.985 357.582C108.441 357.134 110.093 356.91 111.941 356.91ZM107.363 381.396C107.923 381.396 108.455 381.102 108.959 380.514C109.491 379.926 109.981 379.156 110.429 378.204C110.877 377.224 111.269 376.118 111.605 374.886C111.969 373.626 112.277 372.338 112.529 371.022C112.781 369.678 112.977 368.376 113.117 367.116C113.257 365.828 113.327 364.652 113.327 363.588C113.327 362.16 113.201 361.18 112.949 360.648C112.697 360.088 112.333 359.808 111.857 359.808C111.269 359.808 110.709 360.102 110.177 360.69C109.645 361.25 109.155 362.006 108.707 362.958C108.259 363.882 107.839 364.96 107.447 366.192C107.083 367.424 106.761 368.684 106.481 369.972C106.229 371.26 106.033 372.534 105.893 373.794C105.753 375.054 105.683 376.202 105.683 377.238C105.683 378.806 105.837 379.898 106.145 380.514C106.453 381.102 106.859 381.396 107.363 381.396Z" fill="white"/>
<path d="M40.6208 369.195L53.7189 361.885" stroke="white" stroke-width="1.7" stroke-miterlimit="10"/>
<path d="M22.2579 327.463L41.2428 321.172" stroke="white" stroke-width="1.7" stroke-miterlimit="10"/>
<path d="M12.0661 283.022L26.9377 281.064" stroke="white" stroke-width="1.7" stroke-miterlimit="10"/>
<path d="M10.4086 237.458L30.3747 238.621" stroke="white" stroke-width="4.25" stroke-miterlimit="10"/>
<path d="M57.6773 228.656C59.4133 228.404 60.9813 227.886 62.3813 227.102C63.8093 226.318 64.9433 225.394 65.7833 224.33H72.2093L66.4973 251H57.4253L61.5833 231.47H57.0473L57.6773 228.656Z" fill="white"/>
<path d="M17.3445 192.394L31.8883 196.066" stroke="white" stroke-width="1.7" stroke-miterlimit="10"/>
<path d="M32.6267 149.438L50.7528 157.89" stroke="white" stroke-width="1.7" stroke-miterlimit="10"/>
<path d="M55.7103 110.119L67.8712 118.9" stroke="white" stroke-width="1.7" stroke-miterlimit="10"/>
<path d="M85.7726 75.8393L99.4975 90.3867" stroke="white" stroke-width="4.25" stroke-miterlimit="10"/>
<path d="M110.85 122.884C112.782 122.268 114.658 121.498 116.478 120.574C118.298 119.622 119.922 118.488 121.35 117.172C122.778 115.828 123.912 114.274 124.752 112.51C125.62 110.746 126.054 108.716 126.054 106.42C126.054 105.3 125.942 104.432 125.718 103.816C125.494 103.2 125.102 102.892 124.542 102.892C124.038 102.892 123.562 103.13 123.114 103.606C122.694 104.082 122.302 104.684 121.938 105.412C121.602 106.14 121.28 106.952 120.972 107.848C120.692 108.744 120.454 109.612 120.258 110.452H112.656L114.042 104.152C115.61 102.808 117.262 101.772 118.998 101.044C120.734 100.288 122.694 99.91 124.878 99.91C126.222 99.91 127.482 100.064 128.658 100.372C129.862 100.68 130.898 101.17 131.766 101.842C132.662 102.486 133.362 103.312 133.866 104.32C134.398 105.3 134.664 106.476 134.664 107.848C134.664 108.884 134.482 109.906 134.118 110.914C133.782 111.922 133.166 112.972 132.27 114.064C131.402 115.128 130.212 116.248 128.7 117.424C127.216 118.572 125.326 119.818 123.03 121.162H132.396L131.556 127H109.926L110.85 122.884Z" fill="white"/>
<path d="M121.742 47.821L129.802 60.4718" stroke="white" stroke-width="1.7" stroke-miterlimit="10"/>
<path d="M162.337 27.0626L169.721 45.6495" stroke="white" stroke-width="1.7" stroke-miterlimit="10"/>
<path d="M206.109 14.304L208.929 29.0367" stroke="white" stroke-width="1.7" stroke-miterlimit="10"/>
<path d="M251.5 10V30" stroke="white" stroke-width="4.25" stroke-miterlimit="10"/>
<path d="M247.654 77.336C245.666 77.336 243.916 77.084 242.404 76.58C240.892 76.048 239.436 75.124 238.036 73.808L239.38 67.508H246.478C246.478 67.48 246.45 67.578 246.394 67.802C246.366 68.026 246.324 68.32 246.268 68.684C246.24 69.048 246.198 69.454 246.142 69.902C246.114 70.35 246.1 70.784 246.1 71.204C246.1 72.352 246.24 73.178 246.52 73.682C246.828 74.158 247.248 74.396 247.78 74.396C248.368 74.396 248.914 74.2 249.418 73.808C249.95 73.416 250.398 72.926 250.762 72.338C251.126 71.75 251.406 71.106 251.602 70.406C251.826 69.678 251.938 68.978 251.938 68.306C251.938 67.018 251.602 66.066 250.93 65.45C250.286 64.806 249.488 64.484 248.536 64.484C248.62 63.952 248.718 63.476 248.83 63.056C248.914 62.692 248.984 62.37 249.04 62.09C249.124 61.782 249.166 61.614 249.166 61.586C250.09 61.586 250.86 61.446 251.476 61.166C252.12 60.858 252.638 60.452 253.03 59.948C253.45 59.416 253.744 58.8 253.912 58.1C254.08 57.372 254.164 56.602 254.164 55.79C254.164 55.454 254.136 55.118 254.08 54.782C254.052 54.418 253.982 54.096 253.87 53.816C253.758 53.508 253.59 53.27 253.366 53.102C253.17 52.906 252.89 52.808 252.526 52.808C251.77 52.808 251.028 53.256 250.3 54.152C249.6 55.048 248.97 56.574 248.41 58.73H241.186L242.446 52.808C243.286 52.276 244.252 51.8 245.344 51.38C246.268 51.016 247.374 50.68 248.662 50.372C249.978 50.064 251.476 49.91 253.156 49.91C254.248 49.91 255.34 50.008 256.432 50.204C257.524 50.372 258.504 50.694 259.372 51.17C260.268 51.646 260.982 52.29 261.514 53.102C262.074 53.914 262.354 54.95 262.354 56.21C262.354 57.162 262.186 58.002 261.85 58.73C261.542 59.43 261.08 60.06 260.464 60.62C259.848 61.18 259.106 61.684 258.238 62.132C257.398 62.58 256.432 63 255.34 63.392C256.18 63.476 256.964 63.644 257.692 63.896C258.42 64.148 259.05 64.498 259.582 64.946C260.142 65.394 260.576 65.94 260.884 66.584C261.22 67.228 261.388 67.998 261.388 68.894C261.388 70.098 261.066 71.218 260.422 72.254C259.778 73.29 258.854 74.186 257.65 74.942C256.474 75.698 255.032 76.286 253.324 76.706C251.644 77.126 249.754 77.336 247.654 77.336Z" fill="white"/>
<path d="M296.891 14.304L294.071 29.0367" stroke="white" stroke-width="1.7" stroke-miterlimit="10"/>
<path d="M340.663 27.0626L333.279 45.6495" stroke="white" stroke-width="1.7" stroke-miterlimit="10"/>
<path d="M381.258 47.821L373.198 60.4718" stroke="white" stroke-width="1.7" stroke-miterlimit="10"/>
<path d="M417.227 75.8393L403.503 90.3867" stroke="white" stroke-width="4.25" stroke-miterlimit="10"/>
<path d="M382.35 126H373.278L374.664 119.28H363.702L364.752 114.366L377.268 99.33H388.104L384.534 115.752H388.356L387.6 119.28H383.778L382.35 126ZM375.42 115.752L377.94 104.076L368.616 115.752H375.42Z" fill="white"/>
<path d="M447.29 110.119L435.129 118.9" stroke="white" stroke-width="1.7" stroke-miterlimit="10"/>
<path d="M470.373 149.438L452.247 157.89" stroke="white" stroke-width="1.7" stroke-miterlimit="10"/>
<path d="M485.656 192.394L471.112 196.066" stroke="white" stroke-width="1.7" stroke-miterlimit="10"/>
<path d="M492.591 237.458L472.625 238.621" stroke="white" stroke-width="4.25" stroke-miterlimit="10"/>
<path d="M446.839 230.126H434.701L433.987 233.738C434.631 233.43 435.331 233.178 436.087 232.982C436.871 232.758 437.795 232.646 438.859 232.646C440.539 232.646 441.939 232.884 443.059 233.36C444.179 233.836 445.075 234.466 445.747 235.25C446.447 236.034 446.937 236.916 447.217 237.896C447.525 238.848 447.679 239.8 447.679 240.752C447.679 242.264 447.357 243.664 446.713 244.952C446.097 246.24 445.201 247.36 444.025 248.312C442.877 249.264 441.463 250.006 439.783 250.538C438.103 251.07 436.213 251.336 434.113 251.336C433.301 251.336 432.517 251.28 431.761 251.168C431.005 251.084 430.263 250.916 429.535 250.664C428.835 250.384 428.121 250.02 427.393 249.572C426.693 249.124 425.965 248.536 425.209 247.808L426.427 241.97H433.063C433.007 242.39 432.965 242.754 432.937 243.062C432.909 243.37 432.895 243.86 432.895 244.532C432.895 245.932 433.077 246.926 433.441 247.514C433.805 248.102 434.323 248.396 434.995 248.396C435.695 248.396 436.297 248.13 436.801 247.598C437.305 247.066 437.711 246.408 438.019 245.624C438.327 244.812 438.551 243.944 438.691 243.02C438.831 242.096 438.901 241.228 438.901 240.416C438.901 239.856 438.859 239.324 438.775 238.82C438.691 238.288 438.551 237.826 438.355 237.434C438.159 237.042 437.893 236.734 437.557 236.51C437.221 236.258 436.801 236.132 436.297 236.132C435.793 236.132 435.261 236.286 434.701 236.594C434.141 236.902 433.595 237.504 433.063 238.4H427.897L430.921 224.33H448.057L446.839 230.126Z" fill="white"/>
<path d="M490.934 283.022L476.062 281.064" stroke="white" stroke-width="1.7" stroke-miterlimit="10"/>
<path d="M480.742 327.463L461.757 321.172" stroke="white" stroke-width="1.7" stroke-miterlimit="10"/>
<path d="M462.379 369.195L449.281 361.885" stroke="white" stroke-width="1.7" stroke-miterlimit="10"/>
<path d="M436.5 406.733L421.179 393.877" stroke="white" stroke-width="4.25" stroke-miterlimit="10"/>
<path d="M396.49 356.91C397.022 356.91 397.624 356.938 398.296 356.994C398.996 357.05 399.696 357.148 400.396 357.288C401.124 357.4 401.824 357.568 402.496 357.792C403.196 357.988 403.812 358.254 404.344 358.59L403 364.47H396.49C396.518 364.162 396.546 363.868 396.574 363.588C396.602 363.308 396.616 363.014 396.616 362.706C396.616 361.978 396.532 361.32 396.364 360.732C396.196 360.116 395.874 359.808 395.398 359.808C395.062 359.808 394.67 359.99 394.222 360.354C393.774 360.718 393.312 361.292 392.836 362.076C392.36 362.86 391.912 363.868 391.492 365.1C391.072 366.332 390.722 367.802 390.442 369.51H390.862C391.674 368.614 392.668 367.928 393.844 367.452C395.048 366.976 396.28 366.738 397.54 366.738C399.696 366.738 401.236 367.396 402.16 368.712C403.084 370 403.546 371.764 403.546 374.004C403.546 375.712 403.28 377.196 402.748 378.456C402.216 379.688 401.362 380.766 400.186 381.69C399.178 382.474 397.904 383.118 396.364 383.622C394.852 384.098 393.06 384.336 390.988 384.336C389.504 384.336 388.132 384.182 386.872 383.874C385.64 383.538 384.562 382.978 383.638 382.194C382.742 381.382 382.042 380.304 381.538 378.96C381.034 377.588 380.782 375.866 380.782 373.794C380.782 371.582 381.09 369.454 381.706 367.41C382.35 365.366 383.316 363.574 384.604 362.034C385.892 360.466 387.516 359.22 389.476 358.296C391.464 357.372 393.802 356.91 396.49 356.91ZM390.778 381.48C391.45 381.48 392.038 381.172 392.542 380.556C393.046 379.94 393.452 379.184 393.76 378.288C394.068 377.392 394.292 376.44 394.432 375.432C394.6 374.396 394.684 373.472 394.684 372.66C394.684 371.988 394.6 371.47 394.432 371.106C394.292 370.742 393.942 370.56 393.382 370.56C392.626 370.56 391.982 370.882 391.45 371.526C390.918 372.142 390.47 372.898 390.106 373.794C389.77 374.662 389.518 375.572 389.35 376.524C389.21 377.476 389.14 378.274 389.14 378.918C389.14 379.702 389.266 380.332 389.518 380.808C389.77 381.256 390.19 381.48 390.778 381.48Z" fill="white"/>
</g>
<defs>
<filter id="filter0_i_2_392" x="0" y="0" width="503" height="503" filterUnits="userSpaceOnUse" color-interpolation-filters="sRGB">
<feFlood flood-opacity="0" result="BackgroundImageFix"/>
<feBlend mode="normal" in="SourceGraphic" in2="BackgroundImageFix" result="shape"/>
<feColorMatrix in="SourceAlpha" type="matrix" values="0 0 0 0 0 0 0 0 0 0 0 0 0 0 0 0 0 0 127 0" result="hardAlpha"/>
<feOffset/>
<feGaussianBlur stdDeviation="24"/>
<feComposite in2="hardAlpha" operator="arithmetic" k2="-1" k3="1"/>
<feColorMatrix type="matrix" values="0 0 0 0 0 0 0 0 0 0 0 0 0 0 0 0 0 0 0.75 0"/>
<feBlend mode="normal" in2="shape" result="effect1_innerShadow_2_392"/>
</filter>
<filter id="filter1_i_2_392" x="164" y="395" width="176" height="64" filterUnits="userSpaceOnUse" color-interpolation-filters="sRGB">
<feFlood flood-opacity="0" result="BackgroundImageFix"/>
<feBlend mode="normal" in="SourceGraphic" in2="BackgroundImageFix" result="shape"/>
<feColorMatrix in="SourceAlpha" type="matrix" values="0 0 0 0 0 0 0 0 0 0 0 0 0 0 0 0 0 0 127 0" result="hardAlpha"/>
<feOffset/>
<feGaussianBlur stdDeviation="4"/>
<feComposite in2="hardAlpha" operator="arithmetic" k2="-1" k3="1"/>
<feColorMatrix type="matrix" values="0 0 0 0 0 0 0 0 0 0 0 0 0 0 0 0 0 0 0.75 0"/>
<feBlend mode="normal" in2="shape" result="effect1_innerShadow_2_392"/>
</filter>
</defs>
</svg>
