<svg width="293" height="293" viewBox="0 0 293 293" fill="none" xmlns="http://www.w3.org/2000/svg">
<g filter="url(#filter0_i_2_739)">
<rect x="5" y="5" width="283" height="283" rx="141.5" stroke="#222222" stroke-width="10"/>
<circle cx="147" cy="147" r="140" fill="#444444"/>
<path d="M179.792 10.8946C147.708 3.16464 113.925 7.01723 84.4058 21.7723L90.3973 33.7591C117.091 20.4163 147.64 16.9325 176.653 23.9225L179.792 10.8946Z" fill="#FF0000BB"/>
<path d="M19.5562 89.051C10.449 109.08 6.19071 130.974 7.12675 152.956L20.5154 152.386C19.6689 132.508 23.5196 112.71 31.7551 94.5979L19.5562 89.051Z" fill="#00BB00"/>
<path d="M93.7689 276.485C114.385 284.96 136.726 288.391 158.935 286.49C181.144 284.59 202.578 277.415 221.454 265.56L214.327 254.212C197.258 264.931 177.875 271.42 157.792 273.138C137.71 274.857 117.507 271.755 98.8642 264.091L93.7689 276.485Z" fill="#0066BB"/>
<path d="M148.45 146.5C148.45 147.017 148.245 147.513 147.879 147.879C147.513 148.244 147.018 148.45 146.5 148.45C145.983 148.45 145.487 148.245 145.122 147.879C144.756 147.514 144.55 147.018 144.55 146.501C144.55 145.984 144.755 145.488 145.12 145.122C145.486 144.756 145.981 144.55 146.499 144.55C147.016 144.55 147.512 144.755 147.878 145.12C148.244 145.485 148.449 145.981 148.45 146.498" fill="#888888"/>
<path d="M148.45 146.5C148.45 147.017 148.245 147.513 147.879 147.879C147.513 148.244 147.018 148.45 146.5 148.45C145.983 148.45 145.487 148.245 145.122 147.879C144.756 147.514 144.55 147.018 144.55 146.501C144.55 145.984 144.755 145.488 145.12 145.122C145.486 144.756 145.981 144.55 146.499 144.55C147.016 144.55 147.512 144.755 147.878 145.12C148.244 145.485 148.449 145.981 148.45 146.498" stroke="white" stroke-miterlimit="10"/>
<path d="M217.821 262.885L210.506 250.948" stroke="white" stroke-width="3.25" stroke-miterlimit="10"/>
<path d="M191.307 238.781H185.691L186.549 234.621H179.763L180.413 231.579L188.161 222.271H194.869L192.659 232.437H195.025L194.557 234.621H192.191L191.307 238.781ZM187.017 232.437L188.577 225.209L182.805 232.437H187.017ZM206.086 222.011C207.438 222.011 208.548 222.201 209.414 222.583C210.281 222.964 210.966 223.553 211.468 224.351C211.815 224.888 212.084 225.503 212.274 226.197C212.465 226.873 212.56 227.644 212.56 228.511C212.56 229.239 212.491 229.984 212.352 230.747C212.214 231.509 212.014 232.246 211.754 232.957C211.494 233.667 211.182 234.343 210.818 234.985C210.472 235.609 210.082 236.155 209.648 236.623C208.868 237.489 207.976 238.105 206.97 238.469C205.965 238.815 204.743 238.989 203.304 238.989C201.918 238.989 200.791 238.833 199.924 238.521C199.075 238.209 198.399 237.706 197.896 237.013C197.48 236.51 197.168 235.877 196.96 235.115C196.77 234.335 196.674 233.433 196.674 232.411C196.674 231.492 196.761 230.599 196.934 229.733C197.108 228.849 197.359 228.025 197.688 227.263C198.035 226.5 198.451 225.807 198.936 225.183C199.422 224.559 199.976 224.03 200.6 223.597C201.328 223.077 202.134 222.687 203.018 222.427C203.92 222.149 204.942 222.011 206.086 222.011ZM203.252 237.169C203.599 237.169 203.928 236.987 204.24 236.623C204.57 236.259 204.873 235.782 205.15 235.193C205.428 234.586 205.67 233.901 205.878 233.139C206.104 232.359 206.294 231.561 206.45 230.747C206.606 229.915 206.728 229.109 206.814 228.329C206.901 227.531 206.944 226.803 206.944 226.145C206.944 225.261 206.866 224.654 206.71 224.325C206.554 223.978 206.329 223.805 206.034 223.805C205.67 223.805 205.324 223.987 204.994 224.351C204.665 224.697 204.362 225.165 204.084 225.755C203.807 226.327 203.547 226.994 203.304 227.757C203.079 228.519 202.88 229.299 202.706 230.097C202.55 230.894 202.429 231.683 202.342 232.463C202.256 233.243 202.212 233.953 202.212 234.595C202.212 235.565 202.308 236.241 202.498 236.623C202.689 236.987 202.94 237.169 203.252 237.169Z" fill="white"/>
<path d="M189.28 276.123L185.989 266.152" stroke="white" stroke-width="1.3" stroke-miterlimit="10"/>
<path d="M158.467 282.474L157.239 268.528" stroke="white" stroke-width="1.3" stroke-miterlimit="10"/>
<path d="M127.017 281.602L128.516 271.21" stroke="white" stroke-width="1.3" stroke-miterlimit="10"/>
<path d="M96.603 273.553L101.721 260.522" stroke="white" stroke-width="3.25" stroke-miterlimit="10"/>
<path d="M108.371 227.764C108.7 227.764 109.073 227.781 109.489 227.816C109.922 227.85 110.356 227.911 110.789 227.998C111.24 228.067 111.673 228.171 112.089 228.31C112.522 228.431 112.904 228.596 113.233 228.804L112.401 232.444H108.371C108.388 232.253 108.406 232.071 108.423 231.898C108.44 231.724 108.449 231.542 108.449 231.352C108.449 230.901 108.397 230.494 108.293 230.13C108.189 229.748 107.99 229.558 107.695 229.558C107.487 229.558 107.244 229.67 106.967 229.896C106.69 230.121 106.404 230.476 106.109 230.962C105.814 231.447 105.537 232.071 105.277 232.834C105.017 233.596 104.8 234.506 104.627 235.564H104.887C105.39 235.009 106.005 234.584 106.733 234.29C107.478 233.995 108.241 233.848 109.021 233.848C110.356 233.848 111.309 234.255 111.881 235.07C112.453 235.867 112.739 236.959 112.739 238.346C112.739 239.403 112.574 240.322 112.245 241.102C111.916 241.864 111.387 242.532 110.659 243.104C110.035 243.589 109.246 243.988 108.293 244.3C107.357 244.594 106.248 244.742 104.965 244.742C104.046 244.742 103.197 244.646 102.417 244.456C101.654 244.248 100.987 243.901 100.415 243.416C99.8604 242.913 99.427 242.246 99.115 241.414C98.803 240.564 98.647 239.498 98.647 238.216C98.647 236.846 98.8377 235.529 99.219 234.264C99.6177 232.998 100.216 231.889 101.013 230.936C101.81 229.965 102.816 229.194 104.029 228.622C105.26 228.05 106.707 227.764 108.371 227.764ZM104.835 242.974C105.251 242.974 105.615 242.783 105.927 242.402C106.239 242.02 106.49 241.552 106.681 240.998C106.872 240.443 107.01 239.854 107.097 239.23C107.201 238.588 107.253 238.016 107.253 237.514C107.253 237.098 107.201 236.777 107.097 236.552C107.01 236.326 106.794 236.214 106.447 236.214C105.979 236.214 105.58 236.413 105.251 236.812C104.922 237.193 104.644 237.661 104.419 238.216C104.211 238.753 104.055 239.316 103.951 239.906C103.864 240.495 103.821 240.989 103.821 241.388C103.821 241.873 103.899 242.263 104.055 242.558C104.211 242.835 104.471 242.974 104.835 242.974ZM124.107 227.764C125.459 227.764 126.568 227.954 127.435 228.336C128.301 228.717 128.986 229.306 129.489 230.104C129.835 230.641 130.104 231.256 130.295 231.95C130.485 232.626 130.581 233.397 130.581 234.264C130.581 234.992 130.511 235.737 130.373 236.5C130.234 237.262 130.035 237.999 129.775 238.71C129.515 239.42 129.203 240.096 128.839 240.738C128.492 241.362 128.102 241.908 127.669 242.376C126.889 243.242 125.996 243.858 124.991 244.222C123.985 244.568 122.763 244.742 121.325 244.742C119.938 244.742 118.811 244.586 117.945 244.274C117.095 243.962 116.419 243.459 115.917 242.766C115.501 242.263 115.189 241.63 114.981 240.868C114.79 240.088 114.695 239.186 114.695 238.164C114.695 237.245 114.781 236.352 114.955 235.486C115.128 234.602 115.379 233.778 115.709 233.016C116.055 232.253 116.471 231.56 116.957 230.936C117.442 230.312 117.997 229.783 118.621 229.35C119.349 228.83 120.155 228.44 121.039 228.18C121.94 227.902 122.963 227.764 124.107 227.764ZM121.273 242.922C121.619 242.922 121.949 242.74 122.261 242.376C122.59 242.012 122.893 241.535 123.171 240.946C123.448 240.339 123.691 239.654 123.899 238.892C124.124 238.112 124.315 237.314 124.471 236.5C124.627 235.668 124.748 234.862 124.835 234.082C124.921 233.284 124.965 232.556 124.965 231.898C124.965 231.014 124.887 230.407 124.731 230.078C124.575 229.731 124.349 229.558 124.055 229.558C123.691 229.558 123.344 229.74 123.015 230.104C122.685 230.45 122.382 230.918 122.105 231.508C121.827 232.08 121.567 232.747 121.325 233.51C121.099 234.272 120.9 235.052 120.727 235.85C120.571 236.647 120.449 237.436 120.363 238.216C120.276 238.996 120.233 239.706 120.233 240.348C120.233 241.318 120.328 241.994 120.519 242.376C120.709 242.74 120.961 242.922 121.273 242.922Z" fill="white"/>
<path d="M68.8394 258.755L74.8133 250.12" stroke="white" stroke-width="1.3" stroke-miterlimit="10"/>
<path d="M45.2015 237.992L55.5911 228.609" stroke="white" stroke-width="1.3" stroke-miterlimit="10"/>
<path d="M26.945 212.37L36.1415 207.303" stroke="white" stroke-width="1.3" stroke-miterlimit="10"/>
<path d="M15.0396 183.248L28.5227 179.479" stroke="white" stroke-width="3.25" stroke-miterlimit="10"/>
<path d="M45.2489 179.113C43.1342 179.113 41.5395 178.706 40.4649 177.891C39.4075 177.077 38.8789 175.933 38.8789 174.459C38.8789 173.454 39.1475 172.57 39.6849 171.807C40.2395 171.027 41.1929 170.412 42.5449 169.961C41.9902 169.771 41.5049 169.424 41.0889 168.921C40.6729 168.419 40.4649 167.751 40.4649 166.919C40.4649 166.122 40.6729 165.429 41.0889 164.839C41.5049 164.233 42.0509 163.73 42.7269 163.331C43.4029 162.933 44.1829 162.638 45.0669 162.447C45.9509 162.257 46.8609 162.161 47.7969 162.161C48.9582 162.161 49.9115 162.291 50.6569 162.551C51.4022 162.811 51.9916 163.149 52.4249 163.565C52.8582 163.964 53.1529 164.415 53.3089 164.917C53.4649 165.403 53.5429 165.871 53.5429 166.321C53.5429 166.98 53.4215 167.543 53.1789 168.011C52.9536 168.462 52.6762 168.835 52.3469 169.129C52.0175 169.424 51.6709 169.658 51.3069 169.831C50.9602 169.987 50.6742 170.091 50.4489 170.143C51.2462 170.334 51.8962 170.75 52.3989 171.391C52.9189 172.015 53.1789 172.804 53.1789 173.757C53.1789 174.503 52.9969 175.205 52.6329 175.863C52.2689 176.505 51.7489 177.068 51.0729 177.553C50.3969 178.039 49.5649 178.42 48.5769 178.697C47.6062 178.975 46.4969 179.113 45.2489 179.113ZM46.5749 169.285C46.9389 169.285 47.2422 169.164 47.4849 168.921C47.7449 168.679 47.9529 168.375 48.1089 168.011C48.2649 167.647 48.3775 167.257 48.4469 166.841C48.5162 166.408 48.5509 166.001 48.5509 165.619C48.5509 165.429 48.5422 165.238 48.5249 165.047C48.5075 164.839 48.4642 164.657 48.3949 164.501C48.3255 164.328 48.2215 164.189 48.0829 164.085C47.9442 163.981 47.7535 163.929 47.5109 163.929C47.1469 163.929 46.8349 164.051 46.5749 164.293C46.3322 164.519 46.1329 164.805 45.9769 165.151C45.8209 165.498 45.6995 165.888 45.6129 166.321C45.5435 166.755 45.5089 167.162 45.5089 167.543C45.5089 167.751 45.5175 167.959 45.5349 168.167C45.5522 168.358 45.5956 168.54 45.6649 168.713C45.7516 168.887 45.8642 169.025 46.0029 169.129C46.1415 169.233 46.3322 169.285 46.5749 169.285ZM45.5869 177.319C45.9509 177.319 46.2542 177.181 46.4969 176.903C46.7569 176.626 46.9562 176.271 47.0949 175.837C47.2509 175.404 47.3549 174.936 47.4069 174.433C47.4762 173.931 47.5109 173.445 47.5109 172.977C47.5109 172.457 47.4502 172.015 47.3289 171.651C47.2249 171.27 46.9475 171.079 46.4969 171.079C46.1329 171.079 45.8209 171.218 45.5609 171.495C45.3009 171.755 45.0842 172.093 44.9109 172.509C44.7549 172.908 44.6335 173.359 44.5469 173.861C44.4775 174.347 44.4429 174.806 44.4429 175.239C44.4429 175.777 44.5209 176.262 44.6769 176.695C44.8329 177.111 45.1362 177.319 45.5869 177.319ZM64.8819 162.135C66.2339 162.135 67.3433 162.326 68.2099 162.707C69.0766 163.089 69.7613 163.678 70.2639 164.475C70.6106 165.013 70.8793 165.628 71.0699 166.321C71.2606 166.997 71.3559 167.769 71.3559 168.635C71.3559 169.363 71.2866 170.109 71.1479 170.871C71.0093 171.634 70.8099 172.371 70.5499 173.081C70.2899 173.792 69.9779 174.468 69.6139 175.109C69.2673 175.733 68.8773 176.279 68.4439 176.747C67.6639 177.614 66.7713 178.229 65.7659 178.593C64.7606 178.94 63.5386 179.113 62.0999 179.113C60.7133 179.113 59.5866 178.957 58.7199 178.645C57.8706 178.333 57.1946 177.831 56.6919 177.137C56.2759 176.635 55.9639 176.002 55.7559 175.239C55.5653 174.459 55.4699 173.558 55.4699 172.535C55.4699 171.617 55.5566 170.724 55.7299 169.857C55.9033 168.973 56.1546 168.15 56.4839 167.387C56.8306 166.625 57.2466 165.931 57.7319 165.307C58.2173 164.683 58.7719 164.155 59.3959 163.721C60.1239 163.201 60.9299 162.811 61.8139 162.551C62.7153 162.274 63.7379 162.135 64.8819 162.135ZM62.0479 177.293C62.3946 177.293 62.7239 177.111 63.0359 176.747C63.3653 176.383 63.6686 175.907 63.9459 175.317C64.2233 174.711 64.4659 174.026 64.6739 173.263C64.8993 172.483 65.0899 171.686 65.2459 170.871C65.4019 170.039 65.5233 169.233 65.6099 168.453C65.6966 167.656 65.7399 166.928 65.7399 166.269C65.7399 165.385 65.6619 164.779 65.5059 164.449C65.3499 164.103 65.1246 163.929 64.8299 163.929C64.4659 163.929 64.1193 164.111 63.7899 164.475C63.4606 164.822 63.1573 165.29 62.8799 165.879C62.6026 166.451 62.3426 167.119 62.0999 167.881C61.8746 168.644 61.6753 169.424 61.5019 170.221C61.3459 171.019 61.2246 171.807 61.1379 172.587C61.0513 173.367 61.0079 174.078 61.0079 174.719C61.0079 175.69 61.1033 176.366 61.2939 176.747C61.4846 177.111 61.7359 177.293 62.0479 177.293Z" fill="white"/>
<path d="M10.118 152.174L20.6089 151.738" stroke="white" stroke-width="1.3" stroke-miterlimit="10"/>
<path d="M12.4415 120.799L26.1911 123.435" stroke="white" stroke-width="1.3" stroke-miterlimit="10"/>
<path d="M21.8867 90.7885L31.4723 95.074" stroke="white" stroke-width="1.3" stroke-miterlimit="10"/>
<path d="M37.9518 63.738L49.085 72.2264" stroke="white" stroke-width="3.25" stroke-miterlimit="10"/>
<path d="M53.9891 79.2205C55.0637 79.0645 56.0344 78.7438 56.9011 78.2585C57.7851 77.7732 58.4871 77.2012 59.0071 76.5425H62.9851L59.4491 93.0525H53.8331L56.4071 80.9625H53.5991L53.9891 79.2205ZM72.955 76.2825C74.307 76.2825 75.4164 76.4732 76.283 76.8545C77.1497 77.2358 77.8344 77.8252 78.337 78.6225C78.6837 79.1598 78.9524 79.7752 79.143 80.4685C79.3337 81.1445 79.429 81.9158 79.429 82.7825C79.429 83.5105 79.3597 84.2558 79.221 85.0185C79.0824 85.7812 78.883 86.5178 78.623 87.2285C78.363 87.9392 78.051 88.6152 77.687 89.2565C77.3404 89.8805 76.9504 90.4265 76.517 90.8945C75.737 91.7612 74.8444 92.3765 73.839 92.7405C72.8337 93.0872 71.6117 93.2605 70.173 93.2605C68.7864 93.2605 67.6597 93.1045 66.793 92.7925C65.9437 92.4805 65.2677 91.9778 64.765 91.2845C64.349 90.7818 64.037 90.1492 63.829 89.3865C63.6384 88.6065 63.543 87.7052 63.543 86.6825C63.543 85.7638 63.6297 84.8712 63.803 84.0045C63.9764 83.1205 64.2277 82.2972 64.557 81.5345C64.9037 80.7718 65.3197 80.0785 65.805 79.4545C66.2904 78.8305 66.845 78.3018 67.469 77.8685C68.197 77.3485 69.003 76.9585 69.887 76.6985C70.7884 76.4212 71.811 76.2825 72.955 76.2825ZM70.121 91.4405C70.4677 91.4405 70.797 91.2585 71.109 90.8945C71.4384 90.5305 71.7417 90.0538 72.019 89.4645C72.2964 88.8578 72.539 88.1732 72.747 87.4105C72.9724 86.6305 73.163 85.8332 73.319 85.0185C73.475 84.1865 73.5964 83.3805 73.683 82.6005C73.7697 81.8032 73.813 81.0752 73.813 80.4165C73.813 79.5325 73.735 78.9258 73.579 78.5965C73.423 78.2498 73.1977 78.0765 72.903 78.0765C72.539 78.0765 72.1924 78.2585 71.863 78.6225C71.5337 78.9692 71.2304 79.4372 70.953 80.0265C70.6757 80.5985 70.4157 81.2658 70.173 82.0285C69.9477 82.7912 69.7484 83.5712 69.575 84.3685C69.419 85.1658 69.2977 85.9545 69.211 86.7345C69.1244 87.5145 69.081 88.2252 69.081 88.8665C69.081 89.8372 69.1764 90.5132 69.367 90.8945C69.5577 91.2585 69.809 91.4405 70.121 91.4405ZM90.3222 76.2825C91.6742 76.2825 92.7836 76.4732 93.6502 76.8545C94.5169 77.2358 95.2016 77.8252 95.7042 78.6225C96.0509 79.1598 96.3196 79.7752 96.5102 80.4685C96.7009 81.1445 96.7962 81.9158 96.7962 82.7825C96.7962 83.5105 96.7269 84.2558 96.5882 85.0185C96.4496 85.7812 96.2502 86.5178 95.9902 87.2285C95.7302 87.9392 95.4182 88.6152 95.0542 89.2565C94.7076 89.8805 94.3176 90.4265 93.8842 90.8945C93.1042 91.7612 92.2116 92.3765 91.2062 92.7405C90.2009 93.0872 88.9789 93.2605 87.5402 93.2605C86.1536 93.2605 85.0269 93.1045 84.1602 92.7925C83.3109 92.4805 82.6349 91.9778 82.1322 91.2845C81.7162 90.7818 81.4042 90.1492 81.1962 89.3865C81.0056 88.6065 80.9102 87.7052 80.9102 86.6825C80.9102 85.7638 80.9969 84.8712 81.1702 84.0045C81.3436 83.1205 81.5949 82.2972 81.9242 81.5345C82.2709 80.7718 82.6869 80.0785 83.1722 79.4545C83.6576 78.8305 84.2122 78.3018 84.8362 77.8685C85.5642 77.3485 86.3702 76.9585 87.2542 76.6985C88.1556 76.4212 89.1782 76.2825 90.3222 76.2825ZM87.4882 91.4405C87.8349 91.4405 88.1642 91.2585 88.4762 90.8945C88.8056 90.5305 89.1089 90.0538 89.3862 89.4645C89.6636 88.8578 89.9062 88.1732 90.1142 87.4105C90.3396 86.6305 90.5302 85.8332 90.6862 85.0185C90.8422 84.1865 90.9636 83.3805 91.0502 82.6005C91.1369 81.8032 91.1802 81.0752 91.1802 80.4165C91.1802 79.5325 91.1022 78.9258 90.9462 78.5965C90.7902 78.2498 90.5649 78.0765 90.2702 78.0765C89.9062 78.0765 89.5596 78.2585 89.2302 78.6225C88.9009 78.9692 88.5976 79.4372 88.3202 80.0265C88.0429 80.5985 87.7829 81.2658 87.5402 82.0285C87.3149 82.7912 87.1156 83.5712 86.9422 84.3685C86.7862 85.1658 86.6649 85.9545 86.5782 86.7345C86.4916 87.5145 86.4482 88.2252 86.4482 88.8665C86.4482 89.8372 86.5436 90.5132 86.7342 90.8945C86.9249 91.2585 87.1762 91.4405 87.4882 91.4405Z" fill="white"/>
<path d="M59.7835 41.0842L66.454 49.1931" stroke="white" stroke-width="1.3" stroke-miterlimit="10"/>
<path d="M86.2219 24.0304L92.4043 36.5914" stroke="white" stroke-width="1.3" stroke-miterlimit="10"/>
<path d="M115.862 13.4827L118.219 23.7148" stroke="white" stroke-width="1.3" stroke-miterlimit="10"/>
<path d="M147.131 10.0015L147.066 24.0013" stroke="white" stroke-width="3.25" stroke-miterlimit="10"/>
<path d="M130.311 37.168C131.386 37.012 132.356 36.6913 133.223 36.206C134.107 35.7207 134.809 35.1487 135.329 34.49H139.307L135.771 51H130.155L132.729 38.91H129.921L130.311 37.168ZM139.267 48.452C140.463 48.0707 141.624 47.594 142.751 47.022C143.878 46.4327 144.883 45.7307 145.767 44.916C146.651 44.084 147.353 43.122 147.873 42.03C148.41 40.938 148.679 39.6813 148.679 38.26C148.679 37.5667 148.61 37.0293 148.471 36.648C148.332 36.2667 148.09 36.076 147.743 36.076C147.431 36.076 147.136 36.2233 146.859 36.518C146.599 36.8127 146.356 37.1853 146.131 37.636C145.923 38.0867 145.724 38.5893 145.533 39.144C145.36 39.6987 145.212 40.236 145.091 40.756H140.385L141.243 36.856C142.214 36.024 143.236 35.3827 144.311 34.932C145.386 34.464 146.599 34.23 147.951 34.23C148.783 34.23 149.563 34.3253 150.291 34.516C151.036 34.7067 151.678 35.01 152.215 35.426C152.77 35.8247 153.203 36.336 153.515 36.96C153.844 37.5667 154.009 38.2947 154.009 39.144C154.009 39.7853 153.896 40.418 153.671 41.042C153.463 41.666 153.082 42.316 152.527 42.992C151.99 43.6507 151.253 44.344 150.317 45.072C149.398 45.7827 148.228 46.554 146.807 47.386H152.605L152.085 51H138.695L139.267 48.452ZM164.689 34.23C166.041 34.23 167.151 34.4207 168.017 34.802C168.884 35.1833 169.569 35.7727 170.071 36.57C170.418 37.1073 170.687 37.7227 170.877 38.416C171.068 39.092 171.163 39.8633 171.163 40.73C171.163 41.458 171.094 42.2033 170.955 42.966C170.817 43.7287 170.617 44.4653 170.357 45.176C170.097 45.8867 169.785 46.5627 169.421 47.204C169.075 47.828 168.685 48.374 168.251 48.842C167.471 49.7087 166.579 50.324 165.573 50.688C164.568 51.0347 163.346 51.208 161.907 51.208C160.521 51.208 159.394 51.052 158.527 50.74C157.678 50.428 157.002 49.9253 156.499 49.232C156.083 48.7293 155.771 48.0967 155.563 47.334C155.373 46.554 155.277 45.6527 155.277 44.63C155.277 43.7113 155.364 42.8187 155.537 41.952C155.711 41.068 155.962 40.2447 156.291 39.482C156.638 38.7193 157.054 38.026 157.539 37.402C158.025 36.778 158.579 36.2493 159.203 35.816C159.931 35.296 160.737 34.906 161.621 34.646C162.523 34.3687 163.545 34.23 164.689 34.23ZM161.855 49.388C162.202 49.388 162.531 49.206 162.843 48.842C163.173 48.478 163.476 48.0013 163.753 47.412C164.031 46.8053 164.273 46.1207 164.481 45.358C164.707 44.578 164.897 43.7807 165.053 42.966C165.209 42.134 165.331 41.328 165.417 40.548C165.504 39.7507 165.547 39.0227 165.547 38.364C165.547 37.48 165.469 36.8733 165.313 36.544C165.157 36.1973 164.932 36.024 164.637 36.024C164.273 36.024 163.927 36.206 163.597 36.57C163.268 36.9167 162.965 37.3847 162.687 37.974C162.41 38.546 162.15 39.2133 161.907 39.976C161.682 40.7387 161.483 41.5187 161.309 42.316C161.153 43.1133 161.032 43.902 160.945 44.682C160.859 45.462 160.815 46.1727 160.815 46.814C160.815 47.7847 160.911 48.4607 161.101 48.842C161.292 49.206 161.543 49.388 161.855 49.388Z" fill="white"/>
<path d="M178.365 13.7715L175.914 23.9814" stroke="white" stroke-width="1.3" stroke-miterlimit="10"/>
<path d="M125.552 77.456C125.029 77.456 124.608 77.568 124.288 77.792C123.968 78.0053 123.717 78.32 123.536 78.736C123.365 79.152 123.248 79.6587 123.184 80.256C123.12 80.8533 123.088 81.5307 123.088 82.288C123.088 82.992 123.114 83.6373 123.168 84.224C123.232 84.8 123.354 85.296 123.536 85.712C123.717 86.128 123.978 86.4533 124.32 86.688C124.661 86.912 125.114 87.024 125.68 87.024C126.16 87.024 126.549 86.944 126.848 86.784C127.157 86.624 127.397 86.4107 127.568 86.144C127.749 85.8667 127.872 85.5467 127.936 85.184C128.01 84.8107 128.048 84.416 128.048 84H129.648C129.648 84.5867 129.578 85.136 129.44 85.648C129.301 86.1493 129.072 86.592 128.752 86.976C128.442 87.3493 128.026 87.6427 127.504 87.856C126.992 88.0693 126.362 88.176 125.616 88.176C124.73 88.176 124.016 88.0267 123.472 87.728C122.928 87.4293 122.501 87.008 122.192 86.464C121.893 85.92 121.69 85.2693 121.584 84.512C121.477 83.7547 121.424 82.9173 121.424 82C121.424 81.2213 121.466 80.4853 121.552 79.792C121.637 79.0987 121.818 78.496 122.096 77.984C122.384 77.4613 122.794 77.0507 123.328 76.752C123.861 76.4533 124.57 76.304 125.456 76.304C125.765 76.304 126.053 76.3307 126.32 76.384C126.597 76.4267 126.842 76.512 127.056 76.64C127.28 76.7573 127.461 76.928 127.6 77.152C127.749 77.3653 127.856 77.6373 127.92 77.968H128L128.32 76.48H129.584V80.4H128C128 79.4933 127.797 78.7787 127.392 78.256C126.997 77.7227 126.384 77.456 125.552 77.456ZM134.344 88.16C133.714 88.16 133.186 88.0587 132.76 87.856C132.333 87.6533 131.992 87.3707 131.736 87.008C131.48 86.6347 131.293 86.1973 131.176 85.696C131.069 85.184 131.016 84.6187 131.016 84C131.016 83.3813 131.069 82.8213 131.176 82.32C131.293 81.808 131.48 81.3707 131.736 81.008C131.992 80.6347 132.333 80.3467 132.76 80.144C133.186 79.9413 133.714 79.84 134.344 79.84C134.973 79.84 135.501 79.9413 135.928 80.144C136.354 80.3467 136.696 80.6347 136.952 81.008C137.208 81.3707 137.389 81.808 137.496 82.32C137.613 82.8213 137.672 83.3813 137.672 84C137.672 84.6187 137.613 85.184 137.496 85.696C137.389 86.1973 137.208 86.6347 136.952 87.008C136.696 87.3707 136.354 87.6533 135.928 87.856C135.501 88.0587 134.973 88.16 134.344 88.16ZM134.344 87.2C134.706 87.2 134.994 87.1093 135.208 86.928C135.432 86.7467 135.597 86.5067 135.704 86.208C135.821 85.8987 135.896 85.5573 135.928 85.184C135.96 84.8 135.976 84.4053 135.976 84C135.976 83.6053 135.96 83.216 135.928 82.832C135.896 82.448 135.821 82.1067 135.704 81.808C135.597 81.4987 135.432 81.2533 135.208 81.072C134.994 80.8907 134.706 80.8 134.344 80.8C133.97 80.8 133.677 80.8907 133.464 81.072C133.25 81.2533 133.085 81.4987 132.968 81.808C132.861 82.1067 132.792 82.448 132.76 82.832C132.728 83.216 132.712 83.6053 132.712 84C132.712 84.4053 132.728 84.8 132.76 85.184C132.792 85.5573 132.861 85.8987 132.968 86.208C133.085 86.5067 133.25 86.7467 133.464 86.928C133.677 87.1093 133.97 87.2 134.344 87.2ZM142.312 88.16C141.683 88.16 141.155 88.0587 140.729 87.856C140.302 87.6533 139.961 87.3707 139.705 87.008C139.449 86.6347 139.262 86.1973 139.145 85.696C139.038 85.184 138.985 84.6187 138.985 84C138.985 83.3813 139.038 82.8213 139.145 82.32C139.262 81.808 139.449 81.3707 139.705 81.008C139.961 80.6347 140.302 80.3467 140.729 80.144C141.155 79.9413 141.683 79.84 142.312 79.84C142.942 79.84 143.47 79.9413 143.897 80.144C144.323 80.3467 144.665 80.6347 144.921 81.008C145.177 81.3707 145.358 81.808 145.465 82.32C145.582 82.8213 145.641 83.3813 145.641 84C145.641 84.6187 145.582 85.184 145.465 85.696C145.358 86.1973 145.177 86.6347 144.921 87.008C144.665 87.3707 144.323 87.6533 143.897 87.856C143.47 88.0587 142.942 88.16 142.312 88.16ZM142.312 87.2C142.675 87.2 142.963 87.1093 143.177 86.928C143.401 86.7467 143.566 86.5067 143.673 86.208C143.79 85.8987 143.865 85.5573 143.897 85.184C143.929 84.8 143.945 84.4053 143.945 84C143.945 83.6053 143.929 83.216 143.897 82.832C143.865 82.448 143.79 82.1067 143.673 81.808C143.566 81.4987 143.401 81.2533 143.177 81.072C142.963 80.8907 142.675 80.8 142.312 80.8C141.939 80.8 141.646 80.8907 141.433 81.072C141.219 81.2533 141.054 81.4987 140.937 81.808C140.83 82.1067 140.761 82.448 140.729 82.832C140.697 83.216 140.681 83.6053 140.681 84C140.681 84.4053 140.697 84.8 140.729 85.184C140.761 85.5573 140.83 85.8987 140.937 86.208C141.054 86.5067 141.219 86.7467 141.433 86.928C141.646 87.1093 141.939 87.2 142.312 87.2ZM146.489 87.04L147.657 86.72V77.2L146.457 76.88V75.92H149.177V86.72L150.377 87.04V88H146.489V87.04ZM153.602 88.16C153.335 88.16 153.053 88.1227 152.754 88.048C152.466 87.984 152.199 87.8667 151.954 87.696C151.709 87.5147 151.506 87.2747 151.346 86.976C151.186 86.6667 151.106 86.2773 151.106 85.808C151.106 85.4667 151.159 85.1573 151.266 84.88C151.373 84.592 151.543 84.3467 151.778 84.144C152.013 83.9413 152.317 83.7813 152.69 83.664C153.074 83.536 153.543 83.456 154.098 83.424L155.762 83.344V82.624C155.762 82.1653 155.671 81.776 155.49 81.456C155.309 81.1253 154.967 80.96 154.466 80.96C154.189 80.96 153.954 81.008 153.762 81.104C153.57 81.2 153.41 81.328 153.282 81.488C153.165 81.648 153.074 81.8293 153.01 82.032C152.957 82.224 152.93 82.416 152.93 82.608H151.57V80H152.61L152.93 81.008H152.994C153.207 80.592 153.495 80.2933 153.858 80.112C154.221 79.9307 154.642 79.84 155.122 79.84C155.805 79.84 156.333 80.0107 156.706 80.352C157.09 80.6933 157.282 81.2427 157.282 82V86.72L158.482 87.04V88H156.082L155.762 86.848C155.677 87.1253 155.549 87.3493 155.378 87.52C155.207 87.6907 155.021 87.824 154.818 87.92C154.615 88.016 154.402 88.08 154.178 88.112C153.965 88.144 153.773 88.16 153.602 88.16ZM154.034 87.04C154.354 87.04 154.626 86.976 154.85 86.848C155.074 86.7093 155.25 86.5387 155.378 86.336C155.517 86.1227 155.613 85.888 155.666 85.632C155.73 85.3653 155.762 85.104 155.762 84.848V84.176L154.338 84.256C153.997 84.2773 153.719 84.3307 153.506 84.416C153.293 84.5013 153.122 84.6133 152.994 84.752C152.866 84.88 152.775 85.0293 152.722 85.2C152.679 85.36 152.658 85.5307 152.658 85.712C152.658 85.9787 152.701 86.1973 152.786 86.368C152.871 86.5387 152.978 86.6773 153.106 86.784C153.234 86.88 153.378 86.9493 153.538 86.992C153.709 87.024 153.874 87.04 154.034 87.04ZM165.058 83.088C165.058 82.8 165.042 82.528 165.01 82.272C164.978 82.016 164.909 81.792 164.802 81.6C164.706 81.408 164.562 81.2533 164.37 81.136C164.178 81.0187 163.922 80.96 163.602 80.96C163.293 80.96 163.021 81.0293 162.786 81.168C162.562 81.3067 162.375 81.488 162.226 81.712C162.077 81.936 161.965 82.1813 161.89 82.448C161.826 82.7147 161.794 82.976 161.794 83.232V86.72L162.994 87.04V88H159.074V87.04L160.274 86.72V81.28L159.058 80.96V80H161.474L161.794 81.28C161.901 80.8 162.162 80.4427 162.578 80.208C163.005 79.9627 163.511 79.84 164.098 79.84C164.642 79.84 165.074 79.936 165.394 80.128C165.725 80.32 165.975 80.5707 166.146 80.88C166.327 81.1893 166.445 81.5413 166.498 81.936C166.562 82.32 166.594 82.7093 166.594 83.104V86.72L167.794 87.04V88H165.058V83.088ZM168.145 80.32L169.345 80L169.665 77.904H170.865V80H172.369V81.168H170.865V85.52C170.865 86.0107 170.924 86.368 171.041 86.592C171.158 86.816 171.35 86.928 171.617 86.928C171.734 86.928 171.884 86.912 172.065 86.88C172.246 86.848 172.417 86.8053 172.577 86.752L172.913 87.648C172.753 87.7973 172.518 87.92 172.209 88.016C171.91 88.112 171.596 88.16 171.265 88.16C170.593 88.16 170.102 87.952 169.793 87.536C169.494 87.1093 169.345 86.4373 169.345 85.52V81.168H168.145V80.32ZM112.031 96.68H109.791V105.72L111.439 106.04V107H106.559V106.04L108.207 105.72V96.68H105.951L105.743 99.08H104.479V95.48H113.519V99.08H112.255L112.031 96.68ZM117.453 107.16C116.813 107.16 116.279 107.064 115.853 106.872C115.426 106.68 115.085 106.403 114.829 106.04C114.573 105.677 114.391 105.24 114.285 104.728C114.178 104.216 114.125 103.64 114.125 103C114.125 102.36 114.178 101.784 114.285 101.272C114.391 100.749 114.573 100.312 114.829 99.96C115.095 99.5973 115.442 99.32 115.869 99.128C116.306 98.936 116.845 98.84 117.485 98.84C118.029 98.84 118.482 98.9147 118.845 99.064C119.207 99.2133 119.501 99.4427 119.725 99.752C119.949 100.051 120.109 100.435 120.205 100.904C120.301 101.363 120.349 101.907 120.349 102.536C120.349 102.664 120.349 102.797 120.349 102.936C120.349 103.064 120.343 103.203 120.333 103.352H115.821C115.821 103.747 115.837 104.12 115.869 104.472C115.901 104.813 115.97 105.112 116.077 105.368C116.194 105.624 116.359 105.827 116.573 105.976C116.786 106.125 117.079 106.2 117.453 106.2C117.762 106.2 118.007 106.152 118.189 106.056C118.381 105.949 118.525 105.821 118.621 105.672C118.717 105.512 118.781 105.341 118.813 105.16C118.845 104.979 118.866 104.803 118.877 104.632H120.333C120.301 104.941 120.231 105.251 120.125 105.56C120.029 105.859 119.869 106.131 119.645 106.376C119.431 106.611 119.149 106.803 118.797 106.952C118.445 107.091 117.997 107.16 117.453 107.16ZM117.389 99.8C117.058 99.8 116.791 99.8693 116.589 100.008C116.386 100.147 116.226 100.333 116.109 100.568C116.002 100.803 115.927 101.08 115.885 101.4C115.853 101.709 115.831 102.04 115.821 102.392H118.861C118.861 101.432 118.743 100.76 118.509 100.376C118.285 99.992 117.911 99.8 117.389 99.8ZM121.512 106.04L122.712 105.72V100.28L121.496 99.96V99H123.912L124.232 100.28C124.317 99.8747 124.552 99.5333 124.936 99.256C125.33 98.9787 125.789 98.84 126.312 98.84C127.005 98.84 127.512 98.9787 127.832 99.256C128.162 99.5333 128.376 99.9013 128.472 100.36C128.642 99.8907 128.92 99.5227 129.304 99.256C129.688 98.9787 130.141 98.84 130.664 98.84C131.133 98.84 131.512 98.9147 131.8 99.064C132.098 99.2027 132.328 99.3947 132.488 99.64C132.658 99.8747 132.77 100.147 132.824 100.456C132.888 100.755 132.92 101.064 132.92 101.384V105.72L134.12 106.04V107H131.384V102.648C131.384 102.264 131.373 101.912 131.352 101.592C131.33 101.261 131.272 100.979 131.176 100.744C131.09 100.499 130.957 100.307 130.776 100.168C130.605 100.029 130.365 99.96 130.056 99.96C129.778 99.96 129.544 100.045 129.352 100.216C129.17 100.387 129.021 100.6 128.904 100.856C128.786 101.101 128.701 101.368 128.648 101.656C128.594 101.933 128.568 102.189 128.568 102.424V105.72L129.768 106.04V107H127.048V102.648C127.048 102.264 127.037 101.912 127.016 101.592C126.994 101.261 126.936 100.979 126.84 100.744C126.754 100.499 126.621 100.307 126.44 100.168C126.269 100.029 126.029 99.96 125.72 99.96C125.464 99.96 125.24 100.045 125.048 100.216C124.856 100.376 124.701 100.579 124.584 100.824C124.466 101.059 124.376 101.315 124.312 101.592C124.258 101.859 124.232 102.104 124.232 102.328V105.72L125.432 106.04V107H121.512V106.04ZM134.505 109.512L135.705 109.192V100.28L134.505 99.96V99H136.905L137.225 100.264C137.342 99.7947 137.588 99.4427 137.961 99.208C138.345 98.9627 138.83 98.84 139.417 98.84C139.94 98.84 140.377 98.952 140.729 99.176C141.081 99.3893 141.364 99.6827 141.577 100.056C141.79 100.429 141.94 100.872 142.025 101.384C142.11 101.885 142.153 102.424 142.153 103C142.153 103.576 142.105 104.12 142.009 104.632C141.924 105.133 141.774 105.571 141.561 105.944C141.358 106.317 141.076 106.616 140.713 106.84C140.361 107.053 139.924 107.16 139.401 107.16C138.804 107.16 138.329 107.043 137.977 106.808C137.625 106.573 137.374 106.253 137.225 105.848V109.192L138.905 109.448V110.44H134.505V109.512ZM139.017 99.96C138.42 99.96 137.972 100.157 137.673 100.552C137.374 100.936 137.225 101.4 137.225 101.944V103.912C137.225 104.189 137.262 104.456 137.337 104.712C137.412 104.957 137.524 105.181 137.673 105.384C137.822 105.587 138.009 105.747 138.233 105.864C138.457 105.981 138.718 106.04 139.017 106.04C139.316 106.04 139.561 105.96 139.753 105.8C139.956 105.629 140.11 105.405 140.217 105.128C140.334 104.851 140.414 104.531 140.457 104.168C140.5 103.805 140.521 103.421 140.521 103.016C140.521 102.621 140.5 102.237 140.457 101.864C140.414 101.491 140.334 101.165 140.217 100.888C140.11 100.611 139.956 100.387 139.753 100.216C139.561 100.045 139.316 99.96 139.017 99.96ZM143.661 105.368H145.405V107H143.661V105.368ZM152.83 110.44C151.87 109.757 151.166 108.803 150.718 107.576C150.27 106.349 150.046 104.824 150.046 103C150.046 101.176 150.27 99.6453 150.718 98.408C151.166 97.16 151.87 96.184 152.83 95.48H153.95C153.491 95.9493 153.118 96.456 152.83 97C152.542 97.544 152.313 98.1307 152.142 98.76C151.982 99.3787 151.87 100.045 151.806 100.76C151.753 101.464 151.726 102.205 151.726 102.984C151.726 103.773 151.753 104.52 151.806 105.224C151.87 105.917 151.982 106.573 152.142 107.192C152.313 107.821 152.542 108.403 152.83 108.936C153.118 109.48 153.491 109.981 153.95 110.44H152.83ZM156.368 99.016C155.974 99.016 155.659 98.9573 155.424 98.84C155.19 98.712 155.008 98.5573 154.88 98.376C154.752 98.184 154.667 97.9867 154.624 97.784C154.582 97.5707 154.56 97.3787 154.56 97.208C154.56 97.0373 154.582 96.8507 154.624 96.648C154.667 96.4347 154.752 96.2373 154.88 96.056C155.008 95.8747 155.19 95.72 155.424 95.592C155.659 95.464 155.974 95.4 156.368 95.4C156.763 95.4 157.083 95.464 157.328 95.592C157.574 95.72 157.76 95.8747 157.888 96.056C158.016 96.2373 158.102 96.4347 158.144 96.648C158.187 96.8507 158.208 97.0373 158.208 97.208C158.208 97.3787 158.187 97.5707 158.144 97.784C158.102 97.9867 158.016 98.184 157.888 98.376C157.76 98.5573 157.574 98.712 157.328 98.84C157.083 98.9573 156.763 99.016 156.368 99.016ZM156.384 98.248C156.544 98.248 156.667 98.216 156.752 98.152C156.838 98.088 156.902 98.008 156.944 97.912C156.987 97.8053 157.014 97.6933 157.024 97.576C157.035 97.4587 157.04 97.352 157.04 97.256C157.04 97.1493 157.035 97.0373 157.024 96.92C157.014 96.792 156.987 96.6747 156.944 96.568C156.902 96.4613 156.838 96.376 156.752 96.312C156.667 96.2373 156.544 96.2 156.384 96.2C156.235 96.2 156.118 96.2373 156.032 96.312C155.947 96.376 155.878 96.4613 155.824 96.568C155.782 96.6747 155.755 96.792 155.744 96.92C155.734 97.0373 155.728 97.1493 155.728 97.256C155.728 97.352 155.734 97.4587 155.744 97.576C155.755 97.6933 155.782 97.8053 155.824 97.912C155.878 98.008 155.947 98.088 156.032 98.152C156.118 98.216 156.235 98.248 156.384 98.248ZM163.645 96.456C163.123 96.456 162.701 96.568 162.381 96.792C162.061 97.0053 161.811 97.32 161.629 97.736C161.459 98.152 161.341 98.6587 161.277 99.256C161.213 99.8533 161.181 100.531 161.181 101.288C161.181 101.992 161.208 102.637 161.261 103.224C161.325 103.8 161.448 104.296 161.629 104.712C161.811 105.128 162.072 105.453 162.413 105.688C162.755 105.912 163.208 106.024 163.773 106.024C164.253 106.024 164.643 105.944 164.941 105.784C165.251 105.624 165.491 105.411 165.661 105.144C165.843 104.867 165.965 104.547 166.029 104.184C166.104 103.811 166.141 103.416 166.141 103H167.741C167.741 103.587 167.672 104.136 167.533 104.648C167.395 105.149 167.165 105.592 166.845 105.976C166.536 106.349 166.12 106.643 165.597 106.856C165.085 107.069 164.456 107.176 163.709 107.176C162.824 107.176 162.109 107.027 161.565 106.728C161.021 106.429 160.595 106.008 160.285 105.464C159.987 104.92 159.784 104.269 159.677 103.512C159.571 102.755 159.517 101.917 159.517 101C159.517 100.221 159.56 99.4853 159.645 98.792C159.731 98.0987 159.912 97.496 160.189 96.984C160.477 96.4613 160.888 96.0507 161.421 95.752C161.955 95.4533 162.664 95.304 163.549 95.304C163.859 95.304 164.147 95.3307 164.413 95.384C164.691 95.4267 164.936 95.512 165.149 95.64C165.373 95.7573 165.555 95.928 165.693 96.152C165.843 96.3653 165.949 96.6373 166.013 96.968H166.093L166.413 95.48H167.677V99.4H166.093C166.093 98.4933 165.891 97.7787 165.485 97.256C165.091 96.7227 164.477 96.456 163.645 96.456ZM168.47 110.44C168.928 109.981 169.302 109.48 169.59 108.936C169.878 108.403 170.102 107.827 170.262 107.208C170.432 106.589 170.544 105.933 170.598 105.24C170.662 104.536 170.694 103.795 170.694 103.016C170.694 102.227 170.662 101.48 170.598 100.776C170.544 100.061 170.432 99.3893 170.262 98.76C170.102 98.1307 169.878 97.544 169.59 97C169.302 96.456 168.928 95.9493 168.47 95.48H169.59C170.55 96.184 171.254 97.16 171.702 98.408C172.15 99.6453 172.374 101.181 172.374 103.016C172.374 104.819 172.15 106.333 171.702 107.56C171.254 108.797 170.55 109.757 169.59 110.44H168.47Z" fill="white" fill-opacity="0.3"/>
</g>
<defs>
<filter id="filter0_i_2_739" x="0" y="0" width="293" height="293" filterUnits="userSpaceOnUse" color-interpolation-filters="sRGB">
<feFlood flood-opacity="0" result="BackgroundImageFix"/>
<feBlend mode="normal" in="SourceGraphic" in2="BackgroundImageFix" result="shape"/>
<feColorMatrix in="SourceAlpha" type="matrix" values="0 0 0 0 0 0 0 0 0 0 0 0 0 0 0 0 0 0 127 0" result="hardAlpha"/>
<feOffset/>
<feGaussianBlur stdDeviation="24"/>
<feComposite in2="hardAlpha" operator="arithmetic" k2="-1" k3="1"/>
<feColorMatrix type="matrix" values="0 0 0 0 0 0 0 0 0 0 0 0 0 0 0 0 0 0 0.75 0"/>
<feBlend mode="normal" in2="shape" result="effect1_innerShadow_2_739"/>
</filter>
</defs>
</svg>
